<svg xmlns="http://www.w3.org/2000/svg" xmlns:xlink="http://www.w3.org/1999/xlink" width="2550" zoomAndPan="magnify" viewBox="0 0 1912.5 749.999995" height="1000" preserveAspectRatio="xMidYMid meet" version="1.0"><defs><filter x="0%" y="0%" width="100%" height="100%" id="d4d650dc9b"><feColorMatrix values="0 0 0 0 1 0 0 0 0 1 0 0 0 0 1 0 0 0 1 0" color-interpolation-filters="sRGB"/></filter><g/><clipPath id="501b250c29"><path d="M 284.132812 245.800781 L 424.34375 245.800781 L 424.34375 316 L 284.132812 316 Z M 284.132812 245.800781 " clip-rule="nonzero"/></clipPath><clipPath id="dff0bb9fda"><path d="M 348 308 L 362 308 L 362 322.28125 L 348 322.28125 Z M 348 308 " clip-rule="nonzero"/></clipPath><clipPath id="d517e7484d"><path d="M 0 0.0976562 L 1801 0.0976562 L 1801 749.902344 L 0 749.902344 Z M 0 0.0976562 " clip-rule="nonzero"/></clipPath><clipPath id="52c4e10fa1"><path d="M 0 0.0976562 L 1799.867188 0.0976562 L 1799.867188 749.902344 L 0 749.902344 Z M 0 0.0976562 " clip-rule="nonzero"/></clipPath><clipPath id="abf2a7f67b"><path d="M 0 0.0976562 L 1799.867188 0.0976562 L 1799.867188 749.902344 L 0 749.902344 Z M 0 0.0976562 " clip-rule="nonzero"/></clipPath><clipPath id="b744e42c3d"><path d="M 0 0.0976562 L 1799.867188 0.0976562 L 1799.867188 749.902344 L 0 749.902344 Z M 0 0.0976562 " clip-rule="nonzero"/></clipPath><linearGradient x1="413.81299" gradientTransform="matrix(1.452322, 0, 0, 1.451973, 16.982356, 171.72376)" y1="398.201741" x2="413.81299" gradientUnits="userSpaceOnUse" y2="-118.201728" id="abd7fcef18"><stop stop-opacity="1" stop-color="rgb(6.669617%, 19.999695%, 12.548828%)" offset="0"/><stop stop-opacity="1" stop-color="rgb(6.669617%, 19.999695%, 12.548828%)" offset="0.25"/><stop stop-opacity="1" stop-color="rgb(6.70166%, 20.13855%, 12.692261%)" offset="0.265625"/><stop stop-opacity="1" stop-color="rgb(6.871033%, 20.861816%, 13.432312%)" offset="0.269531"/><stop stop-opacity="1" stop-color="rgb(7.006836%, 21.446228%, 14.028931%)" offset="0.273438"/><stop stop-opacity="1" stop-color="rgb(7.142639%, 22.029114%, 14.625549%)" offset="0.277344"/><stop stop-opacity="1" stop-color="rgb(7.278442%, 22.613525%, 15.222168%)" offset="0.28125"/><stop stop-opacity="1" stop-color="rgb(7.414246%, 23.196411%, 15.818787%)" offset="0.285156"/><stop stop-opacity="1" stop-color="rgb(7.551575%, 23.780823%, 16.415405%)" offset="0.289062"/><stop stop-opacity="1" stop-color="rgb(7.687378%, 24.363708%, 17.012024%)" offset="0.292969"/><stop stop-opacity="1" stop-color="rgb(7.823181%, 24.946594%, 17.608643%)" offset="0.296875"/><stop stop-opacity="1" stop-color="rgb(7.958984%, 25.52948%, 18.203735%)" offset="0.300781"/><stop stop-opacity="1" stop-color="rgb(8.094788%, 26.113892%, 18.800354%)" offset="0.304688"/><stop stop-opacity="1" stop-color="rgb(8.230591%, 26.696777%, 19.396973%)" offset="0.308594"/><stop stop-opacity="1" stop-color="rgb(8.36792%, 27.281189%, 19.993591%)" offset="0.3125"/><stop stop-opacity="1" stop-color="rgb(8.503723%, 27.864075%, 20.59021%)" offset="0.316406"/><stop stop-opacity="1" stop-color="rgb(8.639526%, 28.448486%, 21.186829%)" offset="0.320312"/><stop stop-opacity="1" stop-color="rgb(8.77533%, 29.031372%, 21.783447%)" offset="0.324219"/><stop stop-opacity="1" stop-color="rgb(8.911133%, 29.615784%, 22.380066%)" offset="0.328125"/><stop stop-opacity="1" stop-color="rgb(9.046936%, 30.198669%, 22.976685%)" offset="0.332031"/><stop stop-opacity="1" stop-color="rgb(9.184265%, 30.781555%, 23.573303%)" offset="0.335938"/><stop stop-opacity="1" stop-color="rgb(9.320068%, 31.364441%, 24.169922%)" offset="0.339844"/><stop stop-opacity="1" stop-color="rgb(9.455872%, 31.948853%, 24.766541%)" offset="0.34375"/><stop stop-opacity="1" stop-color="rgb(9.591675%, 32.531738%, 25.363159%)" offset="0.347656"/><stop stop-opacity="1" stop-color="rgb(9.729004%, 33.11615%, 25.959778%)" offset="0.351562"/><stop stop-opacity="1" stop-color="rgb(9.864807%, 33.699036%, 26.556396%)" offset="0.355469"/><stop stop-opacity="1" stop-color="rgb(10.00061%, 34.283447%, 27.153015%)" offset="0.359375"/><stop stop-opacity="1" stop-color="rgb(10.136414%, 34.866333%, 27.749634%)" offset="0.363281"/><stop stop-opacity="1" stop-color="rgb(10.272217%, 35.450745%, 28.346252%)" offset="0.367188"/><stop stop-opacity="1" stop-color="rgb(10.40802%, 36.03363%, 28.942871%)" offset="0.371094"/><stop stop-opacity="1" stop-color="rgb(10.545349%, 36.616516%, 29.53949%)" offset="0.375"/><stop stop-opacity="1" stop-color="rgb(10.681152%, 37.199402%, 30.136108%)" offset="0.378906"/><stop stop-opacity="1" stop-color="rgb(10.816956%, 37.783813%, 30.732727%)" offset="0.382812"/><stop stop-opacity="1" stop-color="rgb(10.952759%, 38.366699%, 31.329346%)" offset="0.386719"/><stop stop-opacity="1" stop-color="rgb(11.088562%, 38.951111%, 31.925964%)" offset="0.390625"/><stop stop-opacity="1" stop-color="rgb(11.224365%, 39.533997%, 32.522583%)" offset="0.394531"/><stop stop-opacity="1" stop-color="rgb(11.361694%, 40.118408%, 33.119202%)" offset="0.398437"/><stop stop-opacity="1" stop-color="rgb(11.497498%, 40.701294%, 33.71582%)" offset="0.402344"/><stop stop-opacity="1" stop-color="rgb(11.633301%, 41.285706%, 34.312439%)" offset="0.40625"/><stop stop-opacity="1" stop-color="rgb(11.769104%, 41.868591%, 34.907532%)" offset="0.410156"/><stop stop-opacity="1" stop-color="rgb(11.904907%, 42.451477%, 35.50415%)" offset="0.414062"/><stop stop-opacity="1" stop-color="rgb(12.04071%, 43.034363%, 36.100769%)" offset="0.417969"/><stop stop-opacity="1" stop-color="rgb(12.17804%, 43.618774%, 36.697388%)" offset="0.421875"/><stop stop-opacity="1" stop-color="rgb(12.313843%, 44.20166%, 37.294006%)" offset="0.425781"/><stop stop-opacity="1" stop-color="rgb(12.449646%, 44.786072%, 37.890625%)" offset="0.429687"/><stop stop-opacity="1" stop-color="rgb(12.585449%, 45.368958%, 38.487244%)" offset="0.433594"/><stop stop-opacity="1" stop-color="rgb(12.721252%, 45.953369%, 39.083862%)" offset="0.4375"/><stop stop-opacity="1" stop-color="rgb(12.857056%, 46.536255%, 39.680481%)" offset="0.441406"/><stop stop-opacity="1" stop-color="rgb(12.994385%, 47.120667%, 40.2771%)" offset="0.445312"/><stop stop-opacity="1" stop-color="rgb(13.130188%, 47.703552%, 40.873718%)" offset="0.449219"/><stop stop-opacity="1" stop-color="rgb(13.265991%, 48.287964%, 41.470337%)" offset="0.453125"/><stop stop-opacity="1" stop-color="rgb(13.401794%, 48.87085%, 42.066956%)" offset="0.457031"/><stop stop-opacity="1" stop-color="rgb(13.539124%, 49.453735%, 42.663574%)" offset="0.460938"/><stop stop-opacity="1" stop-color="rgb(13.674927%, 50.036621%, 43.260193%)" offset="0.464844"/><stop stop-opacity="1" stop-color="rgb(13.81073%, 50.621033%, 43.856812%)" offset="0.46875"/><stop stop-opacity="1" stop-color="rgb(13.946533%, 51.203918%, 44.45343%)" offset="0.472656"/><stop stop-opacity="1" stop-color="rgb(14.082336%, 51.78833%, 45.050049%)" offset="0.476562"/><stop stop-opacity="1" stop-color="rgb(14.21814%, 52.371216%, 45.646667%)" offset="0.480469"/><stop stop-opacity="1" stop-color="rgb(14.355469%, 52.955627%, 46.243286%)" offset="0.484375"/><stop stop-opacity="1" stop-color="rgb(14.491272%, 53.538513%, 46.839905%)" offset="0.488281"/><stop stop-opacity="1" stop-color="rgb(14.627075%, 54.122925%, 47.436523%)" offset="0.492187"/><stop stop-opacity="1" stop-color="rgb(14.762878%, 54.705811%, 48.033142%)" offset="0.496094"/><stop stop-opacity="1" stop-color="rgb(14.898682%, 55.288696%, 48.629761%)" offset="0.5"/><stop stop-opacity="1" stop-color="rgb(15.910339%, 56.027222%, 48.99292%)" offset="0.503906"/><stop stop-opacity="1" stop-color="rgb(16.921997%, 56.767273%, 49.356079%)" offset="0.507812"/><stop stop-opacity="1" stop-color="rgb(17.933655%, 57.505798%, 49.717712%)" offset="0.511719"/><stop stop-opacity="1" stop-color="rgb(18.945312%, 58.24585%, 50.080872%)" offset="0.515625"/><stop stop-opacity="1" stop-color="rgb(19.95697%, 58.984375%, 50.444031%)" offset="0.519531"/><stop stop-opacity="1" stop-color="rgb(20.968628%, 59.724426%, 50.80719%)" offset="0.523437"/><stop stop-opacity="1" stop-color="rgb(21.980286%, 60.462952%, 51.170349%)" offset="0.527344"/><stop stop-opacity="1" stop-color="rgb(22.991943%, 61.203003%, 51.533508%)" offset="0.53125"/><stop stop-opacity="1" stop-color="rgb(24.003601%, 61.941528%, 51.896667%)" offset="0.535156"/><stop stop-opacity="1" stop-color="rgb(25.015259%, 62.68158%, 52.259827%)" offset="0.539062"/><stop stop-opacity="1" stop-color="rgb(26.026917%, 63.420105%, 52.622986%)" offset="0.542969"/><stop stop-opacity="1" stop-color="rgb(27.038574%, 64.160156%, 52.986145%)" offset="0.546875"/><stop stop-opacity="1" stop-color="rgb(28.050232%, 64.898682%, 53.349304%)" offset="0.550781"/><stop stop-opacity="1" stop-color="rgb(29.06189%, 65.638733%, 53.712463%)" offset="0.554688"/><stop stop-opacity="1" stop-color="rgb(30.073547%, 66.377258%, 54.075623%)" offset="0.558594"/><stop stop-opacity="1" stop-color="rgb(31.085205%, 67.11731%, 54.438782%)" offset="0.5625"/><stop stop-opacity="1" stop-color="rgb(32.095337%, 67.855835%, 54.801941%)" offset="0.566406"/><stop stop-opacity="1" stop-color="rgb(33.106995%, 68.595886%, 55.1651%)" offset="0.570312"/><stop stop-opacity="1" stop-color="rgb(34.118652%, 69.334412%, 55.528259%)" offset="0.574219"/><stop stop-opacity="1" stop-color="rgb(35.13031%, 70.074463%, 55.891418%)" offset="0.578125"/><stop stop-opacity="1" stop-color="rgb(36.141968%, 70.812988%, 56.254578%)" offset="0.582031"/><stop stop-opacity="1" stop-color="rgb(37.153625%, 71.55304%, 56.617737%)" offset="0.585938"/><stop stop-opacity="1" stop-color="rgb(38.165283%, 72.291565%, 56.980896%)" offset="0.589844"/><stop stop-opacity="1" stop-color="rgb(39.176941%, 73.031616%, 57.344055%)" offset="0.59375"/><stop stop-opacity="1" stop-color="rgb(40.188599%, 73.770142%, 57.707214%)" offset="0.597656"/><stop stop-opacity="1" stop-color="rgb(41.200256%, 74.510193%, 58.070374%)" offset="0.601562"/><stop stop-opacity="1" stop-color="rgb(42.211914%, 75.248718%, 58.433533%)" offset="0.605469"/><stop stop-opacity="1" stop-color="rgb(43.223572%, 75.98877%, 58.796692%)" offset="0.609375"/><stop stop-opacity="1" stop-color="rgb(44.235229%, 76.727295%, 59.158325%)" offset="0.613281"/><stop stop-opacity="1" stop-color="rgb(45.246887%, 77.467346%, 59.521484%)" offset="0.617188"/><stop stop-opacity="1" stop-color="rgb(46.258545%, 78.205872%, 59.884644%)" offset="0.621094"/><stop stop-opacity="1" stop-color="rgb(47.270203%, 78.945923%, 60.247803%)" offset="0.625"/><stop stop-opacity="1" stop-color="rgb(48.28186%, 79.684448%, 60.610962%)" offset="0.628906"/><stop stop-opacity="1" stop-color="rgb(49.293518%, 80.4245%, 60.974121%)" offset="0.632812"/><stop stop-opacity="1" stop-color="rgb(50.30365%, 81.163025%, 61.33728%)" offset="0.636719"/><stop stop-opacity="1" stop-color="rgb(51.315308%, 81.903076%, 61.700439%)" offset="0.640625"/><stop stop-opacity="1" stop-color="rgb(52.326965%, 82.641602%, 62.063599%)" offset="0.644531"/><stop stop-opacity="1" stop-color="rgb(53.338623%, 83.381653%, 62.426758%)" offset="0.648438"/><stop stop-opacity="1" stop-color="rgb(54.350281%, 84.120178%, 62.789917%)" offset="0.652344"/><stop stop-opacity="1" stop-color="rgb(55.361938%, 84.858704%, 63.153076%)" offset="0.65625"/><stop stop-opacity="1" stop-color="rgb(56.373596%, 85.597229%, 63.516235%)" offset="0.660156"/><stop stop-opacity="1" stop-color="rgb(57.385254%, 86.33728%, 63.879395%)" offset="0.664062"/><stop stop-opacity="1" stop-color="rgb(58.396912%, 87.075806%, 64.242554%)" offset="0.667969"/><stop stop-opacity="1" stop-color="rgb(59.408569%, 87.815857%, 64.605713%)" offset="0.671875"/><stop stop-opacity="1" stop-color="rgb(60.420227%, 88.554382%, 64.968872%)" offset="0.675781"/><stop stop-opacity="1" stop-color="rgb(61.431885%, 89.294434%, 65.332031%)" offset="0.679688"/><stop stop-opacity="1" stop-color="rgb(62.443542%, 90.032959%, 65.69519%)" offset="0.683594"/><stop stop-opacity="1" stop-color="rgb(63.4552%, 90.77301%, 66.05835%)" offset="0.6875"/><stop stop-opacity="1" stop-color="rgb(64.466858%, 91.511536%, 66.421509%)" offset="0.691406"/><stop stop-opacity="1" stop-color="rgb(65.478516%, 92.251587%, 66.784668%)" offset="0.695312"/><stop stop-opacity="1" stop-color="rgb(66.490173%, 92.990112%, 67.147827%)" offset="0.699219"/><stop stop-opacity="1" stop-color="rgb(67.501831%, 93.730164%, 67.510986%)" offset="0.703125"/><stop stop-opacity="1" stop-color="rgb(68.511963%, 94.468689%, 67.87262%)" offset="0.707031"/><stop stop-opacity="1" stop-color="rgb(69.523621%, 95.20874%, 68.235779%)" offset="0.710937"/><stop stop-opacity="1" stop-color="rgb(70.535278%, 95.947266%, 68.598938%)" offset="0.714844"/><stop stop-opacity="1" stop-color="rgb(71.546936%, 96.687317%, 68.962097%)" offset="0.71875"/><stop stop-opacity="1" stop-color="rgb(72.558594%, 97.425842%, 69.325256%)" offset="0.722656"/><stop stop-opacity="1" stop-color="rgb(73.570251%, 98.165894%, 69.688416%)" offset="0.726562"/><stop stop-opacity="1" stop-color="rgb(74.581909%, 98.904419%, 70.051575%)" offset="0.730469"/><stop stop-opacity="1" stop-color="rgb(75.593567%, 99.64447%, 70.414734%)" offset="0.734375"/><stop stop-opacity="1" stop-color="rgb(75.836182%, 99.821472%, 70.501709%)" offset="0.738281"/><stop stop-opacity="1" stop-color="rgb(76.078796%, 100%, 70.588684%)" offset="0.742188"/><stop stop-opacity="1" stop-color="rgb(76.078796%, 100%, 70.588684%)" offset="0.75"/><stop stop-opacity="1" stop-color="rgb(76.078796%, 100%, 70.588684%)" offset="1"/></linearGradient><clipPath id="efd9fc7d13"><rect x="0" width="1800" y="0" height="750"/></clipPath><clipPath id="2aa568a996"><path d="M 0 0.0976562 L 1799.867188 0.0976562 L 1799.867188 749.902344 L 0 749.902344 Z M 0 0.0976562 " clip-rule="nonzero"/></clipPath><clipPath id="596ffb50a2"><rect x="0" width="1800" y="0" height="750"/></clipPath><clipPath id="7113505dc9"><rect x="0" width="1800" y="0" height="750"/></clipPath><mask id="1d7da09592"><g filter="url(#d4d650dc9b)"><g transform="matrix(1, 0, 0, 1, 0, 0.00000000000001675)"><g clip-path="url(#7113505dc9)"><g clip-path="url(#2aa568a996)"><g transform="matrix(1, 0, 0, 1, 0, 0.00000000000001675)"><g clip-path="url(#596ffb50a2)"><g fill="#000000" fill-opacity="1"><g transform="translate(16.842888, 478.090096)"><g><path d="M 88.859375 1.453125 C 73.953125 1.453125 59.769531 -1.109375 46.3125 -6.234375 C 32.863281 -11.367188 22.363281 -18.003906 14.8125 -26.140625 L 21.484375 -37.171875 C 28.648438 -29.617188 38.28125 -23.46875 50.375 -18.71875 C 62.476562 -13.976562 75.207031 -11.609375 88.5625 -11.609375 C 107.925781 -11.609375 122.546875 -15.285156 132.421875 -22.640625 C 142.296875 -30.003906 147.234375 -39.59375 147.234375 -51.40625 C 147.234375 -60.5 144.617188 -67.753906 139.390625 -73.171875 C 134.160156 -78.597656 127.671875 -82.757812 119.921875 -85.65625 C 112.179688 -88.5625 101.726562 -91.566406 88.5625 -94.671875 C 73.65625 -98.347656 61.703125 -101.925781 52.703125 -105.40625 C 43.703125 -108.894531 36.054688 -114.269531 29.765625 -121.53125 C 23.472656 -128.789062 20.328125 -138.519531 20.328125 -150.71875 C 20.328125 -160.582031 22.941406 -169.628906 28.171875 -177.859375 C 33.398438 -186.085938 41.382812 -192.617188 52.125 -197.453125 C 62.863281 -202.296875 76.269531 -204.71875 92.34375 -204.71875 C 103.570312 -204.71875 114.601562 -203.070312 125.4375 -199.78125 C 136.28125 -196.5 145.671875 -192.050781 153.609375 -186.4375 L 148.09375 -174.53125 C 139.96875 -180.144531 131.015625 -184.398438 121.234375 -187.296875 C 111.460938 -190.203125 101.832031 -191.65625 92.34375 -191.65625 C 73.5625 -191.65625 59.332031 -187.878906 49.65625 -180.328125 C 39.976562 -172.773438 35.140625 -163 35.140625 -151 C 35.140625 -141.90625 37.75 -134.644531 42.96875 -129.21875 C 48.195312 -123.800781 54.679688 -119.640625 62.421875 -116.734375 C 70.171875 -113.828125 80.726562 -110.726562 94.09375 -107.4375 C 109 -103.757812 120.898438 -100.175781 129.796875 -96.6875 C 138.703125 -93.207031 146.300781 -87.9375 152.59375 -80.875 C 158.882812 -73.8125 162.03125 -64.273438 162.03125 -52.265625 C 162.03125 -42.390625 159.367188 -33.382812 154.046875 -25.25 C 148.722656 -17.125 140.546875 -10.640625 129.515625 -5.796875 C 118.484375 -0.960938 104.929688 1.453125 88.859375 1.453125 Z M 88.859375 1.453125 "/></g></g></g><g fill="#000000" fill-opacity="1"><g transform="translate(227.379032, 478.090096)"><g><path d="M 30.78125 -151.578125 L 45.296875 -151.578125 L 45.296875 0 L 30.78125 0 Z M 38.03125 -188.46875 C 34.75 -188.46875 31.945312 -189.578125 29.625 -191.796875 C 27.300781 -194.023438 26.140625 -196.785156 26.140625 -200.078125 C 26.140625 -203.367188 27.300781 -206.175781 29.625 -208.5 C 31.945312 -210.820312 34.75 -211.984375 38.03125 -211.984375 C 41.320312 -211.984375 44.128906 -210.867188 46.453125 -208.640625 C 48.773438 -206.421875 49.9375 -203.664062 49.9375 -200.375 C 49.9375 -197.082031 48.773438 -194.273438 46.453125 -191.953125 C 44.128906 -189.628906 41.320312 -188.46875 38.03125 -188.46875 Z M 38.03125 -188.46875 "/></g></g></g><g fill="#000000" fill-opacity="1"><g transform="translate(336.857816, 478.090096)"><g><path d="M 167.265625 -151.578125 L 167.265625 -16.265625 C 167.265625 8.898438 161.164062 27.484375 148.96875 39.484375 C 136.769531 51.492188 118.378906 57.5 93.796875 57.5 C 79.859375 57.5 66.691406 55.367188 54.296875 51.109375 C 41.910156 46.847656 31.941406 40.941406 24.390625 33.390625 L 32.234375 22.359375 C 39.785156 29.328125 48.882812 34.75 59.53125 38.625 C 70.175781 42.5 81.5 44.4375 93.5 44.4375 C 113.632812 44.4375 128.539062 39.644531 138.21875 30.0625 C 147.90625 20.476562 152.75 5.617188 152.75 -14.515625 L 152.75 -40.078125 C 146.550781 -29.035156 137.929688 -20.515625 126.890625 -14.515625 C 115.859375 -8.515625 103.472656 -5.515625 89.734375 -5.515625 C 75.597656 -5.515625 62.769531 -8.660156 51.25 -14.953125 C 39.726562 -21.242188 30.675781 -30.003906 24.09375 -41.234375 C 17.519531 -52.460938 14.234375 -65.144531 14.234375 -79.28125 C 14.234375 -93.40625 17.519531 -106.082031 24.09375 -117.3125 C 30.675781 -128.539062 39.726562 -137.253906 51.25 -143.453125 C 62.769531 -149.648438 75.597656 -152.75 89.734375 -152.75 C 103.671875 -152.75 116.253906 -149.648438 127.484375 -143.453125 C 138.710938 -137.253906 147.328125 -128.539062 153.328125 -117.3125 L 153.328125 -151.578125 Z M 90.890625 -18.578125 C 102.703125 -18.578125 113.347656 -21.140625 122.828125 -26.265625 C 132.316406 -31.398438 139.722656 -38.566406 145.046875 -47.765625 C 150.367188 -56.960938 153.03125 -67.46875 153.03125 -79.28125 C 153.03125 -91.082031 150.367188 -101.53125 145.046875 -110.625 C 139.722656 -119.726562 132.316406 -126.84375 122.828125 -131.96875 C 113.347656 -137.101562 102.703125 -139.671875 90.890625 -139.671875 C 79.078125 -139.671875 68.476562 -137.101562 59.09375 -131.96875 C 49.707031 -126.84375 42.351562 -119.726562 37.03125 -110.625 C 31.707031 -101.53125 29.046875 -91.082031 29.046875 -79.28125 C 29.046875 -67.46875 31.707031 -56.960938 37.03125 -47.765625 C 42.351562 -38.566406 49.707031 -31.398438 59.09375 -26.265625 C 68.476562 -21.140625 79.078125 -18.578125 90.890625 -18.578125 Z M 90.890625 -18.578125 "/></g></g></g><g fill="#000000" fill-opacity="1"><g transform="translate(568.592751, 478.090096)"><g><path d="M 104.828125 -152.75 C 123.804688 -152.75 138.8125 -147.226562 149.84375 -136.1875 C 160.875 -125.15625 166.390625 -109.28125 166.390625 -88.5625 L 166.390625 0 L 151.875 0 L 151.875 -87.40625 C 151.875 -104.445312 147.566406 -117.414062 138.953125 -126.3125 C 130.335938 -135.21875 118.285156 -139.671875 102.796875 -139.671875 C 84.984375 -139.671875 70.945312 -134.347656 60.6875 -123.703125 C 50.425781 -113.054688 45.296875 -98.734375 45.296875 -80.734375 L 45.296875 0 L 30.78125 0 L 30.78125 -151.578125 L 44.71875 -151.578125 L 44.71875 -118.765625 C 49.945312 -129.410156 57.738281 -137.734375 68.09375 -143.734375 C 78.445312 -149.742188 90.691406 -152.75 104.828125 -152.75 Z M 104.828125 -152.75 "/></g></g></g><g fill="#000000" fill-opacity="1"><g transform="translate(797.714176, 478.090096)"><g><path d="M 81.890625 -152.75 C 100.671875 -152.75 115.09375 -147.957031 125.15625 -138.375 C 135.226562 -128.789062 140.265625 -114.707031 140.265625 -96.125 L 140.265625 0 L 126.3125 0 L 126.3125 -27 C 121.476562 -18.09375 114.414062 -11.171875 105.125 -6.234375 C 95.832031 -1.304688 84.695312 1.15625 71.71875 1.15625 C 54.882812 1.15625 41.578125 -2.8125 31.796875 -10.75 C 22.023438 -18.6875 17.140625 -29.140625 17.140625 -42.109375 C 17.140625 -54.691406 21.640625 -64.898438 30.640625 -72.734375 C 39.640625 -80.578125 54.015625 -84.5 73.765625 -84.5 L 125.734375 -84.5 L 125.734375 -96.703125 C 125.734375 -110.835938 121.910156 -121.582031 114.265625 -128.9375 C 106.617188 -136.289062 95.441406 -139.96875 80.734375 -139.96875 C 70.660156 -139.96875 61.023438 -138.222656 51.828125 -134.734375 C 42.640625 -131.253906 34.847656 -126.609375 28.453125 -120.796875 L 21.203125 -131.25 C 28.753906 -138.03125 37.851562 -143.304688 48.5 -147.078125 C 59.144531 -150.859375 70.273438 -152.75 81.890625 -152.75 Z M 73.765625 -10.75 C 86.347656 -10.75 97.039062 -13.648438 105.84375 -19.453125 C 114.65625 -25.265625 121.285156 -33.6875 125.734375 -44.71875 L 125.734375 -73.171875 L 74.046875 -73.171875 C 59.140625 -73.171875 48.347656 -70.460938 41.671875 -65.046875 C 34.992188 -59.628906 31.65625 -52.175781 31.65625 -42.6875 C 31.65625 -32.8125 35.332031 -25.019531 42.6875 -19.3125 C 50.039062 -13.601562 60.398438 -10.75 73.765625 -10.75 Z M 73.765625 -10.75 "/></g></g></g><g fill="#000000" fill-opacity="1"><g transform="translate(1000.699997, 478.090096)"><g><path d="M 30.78125 -215.46875 L 45.296875 -215.46875 L 45.296875 0 L 30.78125 0 Z M 30.78125 -215.46875 "/></g></g></g><g fill="#000000" fill-opacity="1"><g transform="translate(1110.20132, 478.090096)"><g/></g></g></g></g></g></g></g></g></mask><clipPath id="1d04a3e29a"><path d="M 0 0.0976562 L 1799.867188 0.0976562 L 1799.867188 749.902344 L 0 749.902344 Z M 0 0.0976562 " clip-rule="nonzero"/></clipPath><clipPath id="51a1005b1a"><rect x="0" width="1800" y="0" height="750"/></clipPath><clipPath id="6ebbe92549"><rect x="0" width="1800" y="0" height="750"/></clipPath><clipPath id="3e74c714cb"><rect x="0" width="1801" y="0" height="750"/></clipPath></defs><g clip-path="url(#501b250c29)"><path fill="#f7f7f7" d="M 326.960938 251.300781 C 318.617188 254.824219 311.121094 259.871094 304.6875 266.296875 C 298.25 272.726562 293.199219 280.210938 289.667969 288.542969 C 286.015625 297.171875 284.160156 306.335938 284.160156 315.785156 L 284.875 315.785156 C 284.875 277.585938 315.992188 246.511719 354.238281 246.511719 C 392.484375 246.511719 423.601562 277.585938 423.601562 315.785156 L 424.316406 315.785156 C 424.316406 306.335938 422.464844 297.171875 418.808594 288.542969 C 415.277344 280.210938 410.226562 272.726562 403.789062 266.296875 C 397.355469 259.871094 389.859375 254.824219 381.515625 251.300781 C 372.875 247.652344 363.699219 245.800781 354.238281 245.800781 C 344.777344 245.800781 335.601562 247.652344 326.960938 251.300781 Z M 326.960938 251.300781 " fill-opacity="1" fill-rule="nonzero"/></g><path fill="#f1f1f2" d="M 410.367188 292.101562 C 407.300781 284.855469 402.90625 278.347656 397.3125 272.765625 C 391.722656 267.183594 385.207031 262.792969 377.949219 259.726562 C 370.449219 256.558594 362.46875 254.945312 354.238281 254.945312 C 346.007812 254.945312 338.027344 256.558594 330.527344 259.726562 C 323.269531 262.792969 316.753906 267.183594 311.164062 272.765625 C 305.570312 278.347656 301.175781 284.855469 298.109375 292.101562 C 294.933594 299.59375 293.320312 307.5625 293.320312 315.785156 L 294.03125 315.785156 C 294.03125 282.628906 321.042969 255.660156 354.238281 255.660156 C 387.433594 255.660156 414.445312 282.628906 414.445312 315.785156 L 415.15625 315.785156 C 415.15625 307.5625 413.542969 299.59375 410.367188 292.101562 Z M 410.367188 292.101562 " fill-opacity="1" fill-rule="nonzero"/><path fill="#d0d2d3" d="M 401.929688 295.664062 C 399.320312 289.503906 395.582031 283.972656 390.835938 279.234375 C 386.089844 274.492188 380.550781 270.761719 374.386719 268.15625 C 368.023438 265.46875 361.238281 264.09375 354.238281 264.09375 C 347.234375 264.09375 340.453125 265.46875 334.089844 268.15625 C 327.925781 270.761719 322.386719 274.492188 317.640625 279.234375 C 312.890625 283.972656 309.15625 289.503906 306.546875 295.664062 C 303.851562 302.019531 302.476562 308.789062 302.476562 315.785156 L 303.191406 315.785156 C 303.191406 287.675781 326.089844 264.804688 354.238281 264.804688 C 382.386719 264.804688 405.285156 287.675781 405.285156 315.785156 L 406 315.785156 C 406 308.789062 404.621094 302.019531 401.929688 295.664062 Z M 401.929688 295.664062 " fill-opacity="1" fill-rule="nonzero"/><path fill="#a6a8ab" d="M 393.492188 299.222656 C 391.34375 294.152344 388.261719 289.597656 384.359375 285.703125 C 380.457031 281.804688 375.898438 278.726562 370.820312 276.582031 C 365.597656 274.375 360.011719 273.238281 354.238281 273.238281 C 348.464844 273.238281 342.878906 274.375 337.65625 276.582031 C 332.578125 278.726562 328.019531 281.804688 324.117188 285.703125 C 320.214844 289.597656 317.132812 294.152344 314.984375 299.222656 C 312.773438 304.441406 311.636719 310.015625 311.636719 315.785156 L 312.347656 315.785156 C 312.347656 292.714844 331.140625 273.949219 354.238281 273.949219 C 377.335938 273.949219 396.128906 292.71875 396.128906 315.785156 L 396.839844 315.785156 C 396.839844 310.015625 395.703125 304.441406 393.492188 299.222656 Z M 393.492188 299.222656 " fill-opacity="1" fill-rule="nonzero"/><path fill="#808184" d="M 385.050781 302.78125 C 383.363281 298.800781 380.941406 295.222656 377.882812 292.167969 C 374.828125 289.117188 371.242188 286.695312 367.257812 285.011719 C 363.167969 283.28125 358.785156 282.382812 354.238281 282.382812 C 349.691406 282.382812 345.308594 283.28125 341.21875 285.011719 C 337.234375 286.695312 333.648438 289.117188 330.59375 292.167969 C 327.535156 295.222656 325.113281 298.800781 323.425781 302.78125 C 321.695312 306.863281 320.792969 311.242188 320.792969 315.78125 L 321.507812 315.78125 C 321.507812 297.757812 336.191406 283.09375 354.238281 283.09375 C 372.285156 283.09375 386.96875 297.757812 386.96875 315.78125 L 387.683594 315.78125 C 387.683594 311.246094 386.78125 306.863281 385.050781 302.78125 Z M 385.050781 302.78125 " fill-opacity="1" fill-rule="nonzero"/><path fill="#58595b" d="M 376.613281 306.34375 C 375.386719 303.449219 373.621094 300.847656 371.40625 298.636719 C 369.195312 296.425781 366.589844 294.664062 363.691406 293.4375 C 360.742188 292.191406 357.554688 291.527344 354.238281 291.527344 C 350.921875 291.527344 347.734375 292.191406 344.785156 293.4375 C 341.886719 294.664062 339.28125 296.425781 337.070312 298.636719 C 334.855469 300.847656 333.089844 303.449219 331.863281 306.34375 C 330.613281 309.289062 329.949219 312.472656 329.949219 315.785156 L 330.664062 315.785156 C 330.664062 302.800781 341.238281 292.242188 354.238281 292.242188 C 367.238281 292.242188 377.8125 302.800781 377.8125 315.785156 L 378.527344 315.785156 C 378.523438 312.472656 377.863281 309.289062 376.613281 306.34375 Z M 376.613281 306.34375 " fill-opacity="1" fill-rule="nonzero"/><path fill="#231f20" d="M 354.238281 300.675781 C 345.894531 300.675781 339.109375 307.453125 339.109375 315.785156 L 339.824219 315.785156 C 339.824219 307.84375 346.289062 301.386719 354.238281 301.386719 C 362.1875 301.386719 368.652344 307.84375 368.652344 315.785156 L 369.367188 315.785156 C 369.367188 307.453125 362.582031 300.675781 354.238281 300.675781 Z M 354.238281 300.675781 " fill-opacity="1" fill-rule="nonzero"/><g clip-path="url(#dff0bb9fda)"><path fill="#231f20" d="M 355.144531 308.847656 C 355.585938 308.847656 356.023438 308.890625 356.453125 308.976562 C 356.886719 309.0625 357.308594 309.191406 357.714844 309.359375 C 358.125 309.527344 358.511719 309.734375 358.878906 309.980469 C 359.246094 310.222656 359.585938 310.503906 359.898438 310.816406 C 360.210938 311.125 360.488281 311.464844 360.734375 311.832031 C 360.980469 312.199219 361.1875 312.585938 361.355469 312.992188 C 361.523438 313.402344 361.652344 313.820312 361.738281 314.253906 C 361.824219 314.6875 361.867188 315.121094 361.867188 315.5625 C 361.867188 316.003906 361.824219 316.441406 361.738281 316.875 C 361.652344 317.308594 361.523438 317.726562 361.355469 318.132812 C 361.1875 318.542969 360.980469 318.929688 360.734375 319.296875 C 360.488281 319.660156 360.210938 320 359.898438 320.3125 C 359.585938 320.625 359.246094 320.902344 358.878906 321.148438 C 358.511719 321.394531 358.125 321.601562 357.714844 321.769531 C 357.308594 321.9375 356.886719 322.066406 356.453125 322.152344 C 356.023438 322.238281 355.585938 322.28125 355.144531 322.28125 C 354.699219 322.28125 354.265625 322.238281 353.832031 322.152344 C 353.398438 322.066406 352.976562 321.9375 352.570312 321.769531 C 352.160156 321.601562 351.773438 321.394531 351.40625 321.148438 C 351.039062 320.902344 350.699219 320.625 350.386719 320.3125 C 350.074219 320 349.796875 319.660156 349.550781 319.296875 C 349.304688 318.929688 349.097656 318.542969 348.929688 318.132812 C 348.761719 317.726562 348.632812 317.308594 348.546875 316.875 C 348.460938 316.441406 348.417969 316.003906 348.417969 315.5625 C 348.417969 315.121094 348.460938 314.6875 348.546875 314.253906 C 348.632812 313.820312 348.761719 313.402344 348.929688 312.992188 C 349.097656 312.585938 349.304688 312.199219 349.550781 311.832031 C 349.796875 311.464844 350.074219 311.125 350.386719 310.816406 C 350.699219 310.503906 351.039062 310.222656 351.40625 309.980469 C 351.773438 309.734375 352.160156 309.527344 352.570312 309.359375 C 352.976562 309.191406 353.398438 309.0625 353.832031 308.976562 C 354.265625 308.890625 354.699219 308.847656 355.144531 308.847656 Z M 355.144531 308.847656 " fill-opacity="1" fill-rule="nonzero"/></g><g clip-path="url(#d517e7484d)"><g transform="matrix(1, 0, 0, 1, 0, 0.00000000000001675)"><g clip-path="url(#3e74c714cb)"><g clip-path="url(#52c4e10fa1)"><g transform="matrix(1, 0, 0, 1, 0, 0.00000000000001675)"><g clip-path="url(#6ebbe92549)"><g clip-path="url(#abf2a7f67b)"><g mask="url(#1d7da09592)"><g transform="matrix(1, 0, 0, 1, 0, 0.00000000000001675)"><g clip-path="url(#51a1005b1a)"><g clip-path="url(#1d04a3e29a)"><path fill="url(#abd7fcef18)" d="M 0 0.0976562 L 0 749.902344 L 1799.867188 749.902344 L 1799.867188 0.0976562 Z M 0 0.0976562 " fill-rule="nonzero"/></g></g></g></g></g></g></g></g></g></g></g><g fill="#4d917f" fill-opacity="1"><g transform="translate(1183.128068, 478.505296)"><g><path d="M 156.265625 -39.421875 L 70.453125 -39.421875 L 54.5 0 L -4.0625 0 L 85.53125 -202.9375 L 142.0625 -202.9375 L 231.9375 0 L 172.21875 0 Z M 139.453125 -81.765625 L 113.359375 -146.703125 L 87.265625 -81.765625 Z M 139.453125 -81.765625 "/></g></g></g><g fill="#4d917f" fill-opacity="1"><g transform="translate(1439.996577, 478.505296)"><g><path d="M 109.015625 -53.921875 L 77.703125 -53.921875 L 77.703125 0 L 20.296875 0 L 20.296875 -202.9375 L 113.0625 -202.9375 C 131.425781 -202.9375 147.375 -199.894531 160.90625 -193.8125 C 174.4375 -187.726562 184.875 -179.03125 192.21875 -167.71875 C 199.5625 -156.414062 203.234375 -143.128906 203.234375 -127.859375 C 203.234375 -113.171875 199.800781 -100.363281 192.9375 -89.4375 C 186.082031 -78.519531 176.273438 -69.96875 163.515625 -63.78125 L 207.296875 0 L 145.828125 0 Z M 145.25 -127.859375 C 145.25 -137.328125 142.253906 -144.671875 136.265625 -149.890625 C 130.273438 -155.109375 121.382812 -157.71875 109.59375 -157.71875 L 77.703125 -157.71875 L 77.703125 -98.28125 L 109.59375 -98.28125 C 121.382812 -98.28125 130.273438 -100.84375 136.265625 -105.96875 C 142.253906 -111.09375 145.25 -118.390625 145.25 -127.859375 Z M 145.25 -127.859375 "/></g></g></g><g fill="#4d917f" fill-opacity="1"><g transform="translate(1683.528886, 478.505296)"><g><path d="M 121.484375 4.0625 C 100.210938 4.0625 81.117188 -0.429688 64.203125 -9.421875 C 47.296875 -18.410156 34.007812 -30.925781 24.34375 -46.96875 C 14.6875 -63.007812 9.859375 -81.175781 9.859375 -101.46875 C 9.859375 -121.769531 14.6875 -139.941406 24.34375 -155.984375 C 34.007812 -172.023438 47.296875 -184.535156 64.203125 -193.515625 C 81.117188 -202.503906 100.210938 -207 121.484375 -207 C 140.035156 -207 156.75 -203.710938 171.625 -197.140625 C 186.507812 -190.578125 198.882812 -181.109375 208.75 -168.734375 L 172.21875 -135.6875 C 159.070312 -151.53125 143.125 -159.453125 124.375 -159.453125 C 113.351562 -159.453125 103.539062 -157.035156 94.9375 -152.203125 C 86.34375 -147.367188 79.675781 -140.554688 74.9375 -131.765625 C 70.207031 -122.972656 67.84375 -112.875 67.84375 -101.46875 C 67.84375 -90.070312 70.207031 -79.972656 74.9375 -71.171875 C 79.675781 -62.378906 86.34375 -55.566406 94.9375 -50.734375 C 103.539062 -45.898438 113.351562 -43.484375 124.375 -43.484375 C 143.125 -43.484375 159.070312 -51.410156 172.21875 -67.265625 L 208.75 -34.203125 C 198.882812 -21.835938 186.507812 -12.367188 171.625 -5.796875 C 156.75 0.773438 140.035156 4.0625 121.484375 4.0625 Z M 121.484375 4.0625 "/></g></g></g></svg>