<svg xmlns="http://www.w3.org/2000/svg" xmlns:xlink="http://www.w3.org/1999/xlink"  zoomAndPan="magnify" viewBox="0 0 1500 1499.999933"  preserveAspectRatio="xMidYMid meet" version="1.0"><defs><filter x="0%" y="0%" width="100%" height="100%" id="95022ffe25"><feColorMatrix values="0 0 0 0 1 0 0 0 0 1 0 0 0 0 1 0 0 0 1 0" color-interpolation-filters="sRGB"/></filter><g/><clipPath id="bab1b061d7"><path d="M 127.210938 599.097656 L 298.960938 599.097656 L 298.960938 685 L 127.210938 685 Z M 127.210938 599.097656 " clip-rule="nonzero"/></clipPath><clipPath id="699dc9fa34"><path d="M 205 676 L 223 676 L 223 692.847656 L 205 692.847656 Z M 205 676 " clip-rule="nonzero"/></clipPath><clipPath id="ccc6769038"><path d="M 0 0.242188 L 1447.011719 0.242188 L 1447.011719 1260.953125 L 0 1260.953125 Z M 0 0.242188 " clip-rule="nonzero"/></clipPath><clipPath id="70f06188e1"><path d="M 0 0.242188 L 1447.011719 0.242188 L 1447.011719 1260.953125 L 0 1260.953125 Z M 0 0.242188 " clip-rule="nonzero"/></clipPath><clipPath id="ac91198558"><path d="M 0 21.253906 L 1447.011719 21.253906 L 1447.011719 1239.941406 L 0 1239.941406 Z M 0 21.253906 " clip-rule="nonzero"/></clipPath><linearGradient x1="413.81299" gradientTransform="matrix(1.167603, 0, 0, 1.167323, 13.653079, 467.172729)" y1="661.999998" x2="413.81299" gradientUnits="userSpaceOnUse" y2="-382" id="3a5756e74d"><stop stop-opacity="1" stop-color="rgb(6.669617%, 19.999695%, 12.548828%)" offset="0"/><stop stop-opacity="1" stop-color="rgb(6.669617%, 19.999695%, 12.548828%)" offset="0.25"/><stop stop-opacity="1" stop-color="rgb(6.669617%, 19.999695%, 12.548828%)" offset="0.375"/><stop stop-opacity="1" stop-color="rgb(6.669617%, 19.999695%, 12.548828%)" offset="0.382812"/><stop stop-opacity="1" stop-color="rgb(6.932068%, 21.128845%, 13.703918%)" offset="0.386719"/><stop stop-opacity="1" stop-color="rgb(7.196045%, 22.259521%, 14.859009%)" offset="0.390625"/><stop stop-opacity="1" stop-color="rgb(7.470703%, 23.439026%, 16.064453%)" offset="0.394531"/><stop stop-opacity="1" stop-color="rgb(7.746887%, 24.61853%, 17.271423%)" offset="0.398438"/><stop stop-opacity="1" stop-color="rgb(8.021545%, 25.798035%, 18.476868%)" offset="0.402344"/><stop stop-opacity="1" stop-color="rgb(8.296204%, 26.977539%, 19.683838%)" offset="0.40625"/><stop stop-opacity="1" stop-color="rgb(8.570862%, 28.157043%, 20.889282%)" offset="0.410156"/><stop stop-opacity="1" stop-color="rgb(8.847046%, 29.336548%, 22.096252%)" offset="0.414062"/><stop stop-opacity="1" stop-color="rgb(9.121704%, 30.516052%, 23.301697%)" offset="0.417969"/><stop stop-opacity="1" stop-color="rgb(9.396362%, 31.695557%, 24.508667%)" offset="0.421875"/><stop stop-opacity="1" stop-color="rgb(9.671021%, 32.875061%, 25.714111%)" offset="0.425781"/><stop stop-opacity="1" stop-color="rgb(9.947205%, 34.056091%, 26.919556%)" offset="0.429688"/><stop stop-opacity="1" stop-color="rgb(10.221863%, 35.235596%, 28.125%)" offset="0.433594"/><stop stop-opacity="1" stop-color="rgb(10.498047%, 36.4151%, 29.33197%)" offset="0.4375"/><stop stop-opacity="1" stop-color="rgb(10.772705%, 37.594604%, 30.537415%)" offset="0.441406"/><stop stop-opacity="1" stop-color="rgb(11.047363%, 38.774109%, 31.744385%)" offset="0.445312"/><stop stop-opacity="1" stop-color="rgb(11.322021%, 39.953613%, 32.949829%)" offset="0.449219"/><stop stop-opacity="1" stop-color="rgb(11.598206%, 41.133118%, 34.156799%)" offset="0.453125"/><stop stop-opacity="1" stop-color="rgb(11.872864%, 42.312622%, 35.362244%)" offset="0.457031"/><stop stop-opacity="1" stop-color="rgb(12.147522%, 43.492126%, 36.569214%)" offset="0.460937"/><stop stop-opacity="1" stop-color="rgb(12.42218%, 44.671631%, 37.774658%)" offset="0.464844"/><stop stop-opacity="1" stop-color="rgb(12.698364%, 45.852661%, 38.980103%)" offset="0.46875"/><stop stop-opacity="1" stop-color="rgb(12.973022%, 47.032166%, 40.185547%)" offset="0.472656"/><stop stop-opacity="1" stop-color="rgb(13.249207%, 48.21167%, 41.392517%)" offset="0.476562"/><stop stop-opacity="1" stop-color="rgb(13.523865%, 49.391174%, 42.597961%)" offset="0.480469"/><stop stop-opacity="1" stop-color="rgb(13.798523%, 50.570679%, 43.804932%)" offset="0.484375"/><stop stop-opacity="1" stop-color="rgb(14.073181%, 51.750183%, 45.010376%)" offset="0.488281"/><stop stop-opacity="1" stop-color="rgb(14.349365%, 52.929688%, 46.217346%)" offset="0.492188"/><stop stop-opacity="1" stop-color="rgb(14.624023%, 54.109192%, 47.422791%)" offset="0.496094"/><stop stop-opacity="1" stop-color="rgb(14.898682%, 55.288696%, 48.629761%)" offset="0.5"/><stop stop-opacity="1" stop-color="rgb(16.943359%, 56.782532%, 49.363708%)" offset="0.503906"/><stop stop-opacity="1" stop-color="rgb(18.989563%, 58.277893%, 50.097656%)" offset="0.507812"/><stop stop-opacity="1" stop-color="rgb(21.034241%, 59.771729%, 50.831604%)" offset="0.511719"/><stop stop-opacity="1" stop-color="rgb(23.078918%, 61.26709%, 51.565552%)" offset="0.515625"/><stop stop-opacity="1" stop-color="rgb(25.123596%, 62.760925%, 52.2995%)" offset="0.519531"/><stop stop-opacity="1" stop-color="rgb(27.1698%, 64.256287%, 53.033447%)" offset="0.523438"/><stop stop-opacity="1" stop-color="rgb(29.214478%, 65.750122%, 53.767395%)" offset="0.527344"/><stop stop-opacity="1" stop-color="rgb(31.259155%, 67.245483%, 54.501343%)" offset="0.53125"/><stop stop-opacity="1" stop-color="rgb(33.303833%, 68.739319%, 55.235291%)" offset="0.535156"/><stop stop-opacity="1" stop-color="rgb(35.350037%, 70.23468%, 55.969238%)" offset="0.539062"/><stop stop-opacity="1" stop-color="rgb(37.394714%, 71.728516%, 56.703186%)" offset="0.542969"/><stop stop-opacity="1" stop-color="rgb(39.440918%, 73.223877%, 57.43866%)" offset="0.546875"/><stop stop-opacity="1" stop-color="rgb(41.485596%, 74.717712%, 58.172607%)" offset="0.550781"/><stop stop-opacity="1" stop-color="rgb(43.530273%, 76.213074%, 58.906555%)" offset="0.554688"/><stop stop-opacity="1" stop-color="rgb(45.574951%, 77.706909%, 59.640503%)" offset="0.558594"/><stop stop-opacity="1" stop-color="rgb(47.621155%, 79.202271%, 60.374451%)" offset="0.5625"/><stop stop-opacity="1" stop-color="rgb(49.665833%, 80.696106%, 61.108398%)" offset="0.566406"/><stop stop-opacity="1" stop-color="rgb(51.71051%, 82.191467%, 61.842346%)" offset="0.570312"/><stop stop-opacity="1" stop-color="rgb(53.755188%, 83.685303%, 62.576294%)" offset="0.574219"/><stop stop-opacity="1" stop-color="rgb(55.801392%, 85.179138%, 63.310242%)" offset="0.578125"/><stop stop-opacity="1" stop-color="rgb(57.846069%, 86.672974%, 64.044189%)" offset="0.582031"/><stop stop-opacity="1" stop-color="rgb(59.890747%, 88.168335%, 64.778137%)" offset="0.585938"/><stop stop-opacity="1" stop-color="rgb(61.935425%, 89.66217%, 65.512085%)" offset="0.589844"/><stop stop-opacity="1" stop-color="rgb(63.981628%, 91.157532%, 66.246033%)" offset="0.59375"/><stop stop-opacity="1" stop-color="rgb(66.026306%, 92.651367%, 66.97998%)" offset="0.597656"/><stop stop-opacity="1" stop-color="rgb(68.070984%, 94.146729%, 67.715454%)" offset="0.601562"/><stop stop-opacity="1" stop-color="rgb(70.115662%, 95.640564%, 68.449402%)" offset="0.605469"/><stop stop-opacity="1" stop-color="rgb(72.161865%, 97.135925%, 69.18335%)" offset="0.609375"/><stop stop-opacity="1" stop-color="rgb(74.119568%, 98.5672%, 69.885254%)" offset="0.613281"/><stop stop-opacity="1" stop-color="rgb(76.078796%, 100%, 70.588684%)" offset="0.617188"/><stop stop-opacity="1" stop-color="rgb(76.078796%, 100%, 70.588684%)" offset="0.625"/><stop stop-opacity="1" stop-color="rgb(76.078796%, 100%, 70.588684%)" offset="0.75"/><stop stop-opacity="1" stop-color="rgb(76.078796%, 100%, 70.588684%)" offset="1"/></linearGradient><clipPath id="3bb52b53d6"><rect x="0" width="1448" y="0" height="1261"/></clipPath><clipPath id="b7bbb889f0"><path d="M 0 0.242188 L 1447.011719 0.242188 L 1447.011719 1260.953125 L 0 1260.953125 Z M 0 0.242188 " clip-rule="nonzero"/></clipPath><clipPath id="c96fb8a805"><rect x="0" width="1448" y="0" height="1261"/></clipPath><clipPath id="76e6f10813"><rect x="0" width="1448" y="0" height="1261"/></clipPath><mask id="08fd6af5be"><g filter="url(#95022ffe25)"><g transform="matrix(1, 0, 0, 1, 0, 0.000000000000113687)"><g clip-path="url(#76e6f10813)"><g clip-path="url(#b7bbb889f0)"><g transform="matrix(1, 0, 0, 1, 0, 0.000000000000113687)"><g clip-path="url(#c96fb8a805)"><g fill="#000000" fill-opacity="1"><g transform="translate(13.540978, 713.477833)"><g><path d="M 71.4375 1.171875 C 59.457031 1.171875 48.054688 -0.890625 37.234375 -5.015625 C 26.421875 -9.140625 17.976562 -14.472656 11.90625 -21.015625 L 17.28125 -29.890625 C 23.039062 -23.816406 30.78125 -18.875 40.5 -15.0625 C 50.226562 -11.25 60.460938 -9.34375 71.203125 -9.34375 C 86.773438 -9.34375 98.53125 -12.296875 106.46875 -18.203125 C 114.40625 -24.117188 118.375 -31.828125 118.375 -41.328125 C 118.375 -48.640625 116.269531 -54.472656 112.0625 -58.828125 C 107.863281 -63.191406 102.648438 -66.539062 96.421875 -68.875 C 90.191406 -71.207031 81.785156 -73.617188 71.203125 -76.109375 C 59.222656 -79.066406 49.613281 -81.945312 42.375 -84.75 C 35.132812 -87.550781 28.984375 -91.867188 23.921875 -97.703125 C 18.867188 -103.546875 16.34375 -111.367188 16.34375 -121.171875 C 16.34375 -129.109375 18.441406 -136.382812 22.640625 -143 C 26.847656 -149.613281 33.269531 -154.863281 41.90625 -158.75 C 50.539062 -162.644531 61.320312 -164.59375 74.25 -164.59375 C 83.269531 -164.59375 92.140625 -163.269531 100.859375 -160.625 C 109.578125 -157.976562 117.125 -154.398438 123.5 -149.890625 L 119.0625 -140.3125 C 112.53125 -144.820312 105.332031 -148.242188 97.46875 -150.578125 C 89.613281 -152.921875 81.875 -154.09375 74.25 -154.09375 C 59.144531 -154.09375 47.703125 -151.054688 39.921875 -144.984375 C 32.140625 -138.910156 28.25 -131.050781 28.25 -121.40625 C 28.25 -114.09375 30.347656 -108.253906 34.546875 -103.890625 C 38.753906 -99.535156 43.96875 -96.191406 50.1875 -93.859375 C 56.414062 -91.523438 64.898438 -89.035156 75.640625 -86.390625 C 87.628906 -83.429688 97.203125 -80.550781 104.359375 -77.75 C 111.515625 -74.945312 117.625 -70.703125 122.6875 -65.015625 C 127.75 -59.335938 130.28125 -51.675781 130.28125 -42.03125 C 130.28125 -34.09375 128.140625 -26.851562 123.859375 -20.3125 C 119.578125 -13.769531 113 -8.550781 104.125 -4.65625 C 95.25 -0.769531 84.351562 1.171875 71.4375 1.171875 Z M 71.4375 1.171875 "/></g></g></g><g fill="#000000" fill-opacity="1"><g transform="translate(182.802816, 713.477833)"><g><path d="M 24.75 -121.875 L 36.421875 -121.875 L 36.421875 0 L 24.75 0 Z M 30.578125 -151.515625 C 27.929688 -151.515625 25.675781 -152.410156 23.8125 -154.203125 C 21.945312 -155.992188 21.015625 -158.210938 21.015625 -160.859375 C 21.015625 -163.503906 21.945312 -165.757812 23.8125 -167.625 C 25.675781 -169.5 27.929688 -170.4375 30.578125 -170.4375 C 33.222656 -170.4375 35.476562 -169.539062 37.34375 -167.75 C 39.21875 -165.957031 40.15625 -163.738281 40.15625 -161.09375 C 40.15625 -158.445312 39.21875 -156.1875 37.34375 -154.3125 C 35.476562 -152.445312 33.222656 -151.515625 30.578125 -151.515625 Z M 30.578125 -151.515625 "/></g></g></g><g fill="#000000" fill-opacity="1"><g transform="translate(270.818964, 713.477833)"><g><path d="M 134.484375 -121.875 L 134.484375 -13.078125 C 134.484375 7.160156 129.578125 22.101562 119.765625 31.75 C 109.960938 41.40625 95.175781 46.234375 75.40625 46.234375 C 64.195312 46.234375 53.613281 44.519531 43.65625 41.09375 C 33.695312 37.664062 25.679688 32.914062 19.609375 26.84375 L 25.921875 17.984375 C 31.984375 23.578125 39.296875 27.929688 47.859375 31.046875 C 56.421875 34.160156 65.523438 35.71875 75.171875 35.71875 C 91.359375 35.71875 103.34375 31.863281 111.125 24.15625 C 118.90625 16.457031 122.796875 4.515625 122.796875 -11.671875 L 122.796875 -32.21875 C 117.816406 -23.34375 110.890625 -16.492188 102.015625 -11.671875 C 93.148438 -6.847656 83.191406 -4.4375 72.140625 -4.4375 C 60.773438 -4.4375 50.460938 -6.960938 41.203125 -12.015625 C 31.941406 -17.078125 24.664062 -24.117188 19.375 -33.140625 C 14.082031 -42.171875 11.4375 -52.367188 11.4375 -63.734375 C 11.4375 -75.097656 14.082031 -85.289062 19.375 -94.3125 C 24.664062 -103.34375 31.941406 -110.347656 41.203125 -115.328125 C 50.460938 -120.304688 60.773438 -122.796875 72.140625 -122.796875 C 83.347656 -122.796875 93.460938 -120.304688 102.484375 -115.328125 C 111.515625 -110.347656 118.441406 -103.347656 123.265625 -94.328125 L 123.265625 -121.875 Z M 73.078125 -14.9375 C 82.566406 -14.9375 91.125 -17 98.75 -21.125 C 106.382812 -25.25 112.335938 -31.007812 116.609375 -38.40625 C 120.890625 -45.800781 123.03125 -54.242188 123.03125 -63.734375 C 123.03125 -73.234375 120.890625 -81.640625 116.609375 -88.953125 C 112.335938 -96.265625 106.382812 -101.984375 98.75 -106.109375 C 91.125 -110.234375 82.566406 -112.296875 73.078125 -112.296875 C 63.578125 -112.296875 55.050781 -110.234375 47.5 -106.109375 C 39.957031 -101.984375 34.046875 -96.265625 29.765625 -88.953125 C 25.484375 -81.640625 23.34375 -73.234375 23.34375 -63.734375 C 23.34375 -54.242188 25.484375 -45.800781 29.765625 -38.40625 C 34.046875 -31.007812 39.957031 -25.25 47.5 -21.125 C 55.050781 -17 63.578125 -14.9375 73.078125 -14.9375 Z M 73.078125 -14.9375 "/></g></g></g><g fill="#000000" fill-opacity="1"><g transform="translate(457.123703, 713.477833)"><g><path d="M 84.28125 -122.796875 C 99.53125 -122.796875 111.59375 -118.359375 120.46875 -109.484375 C 129.34375 -100.617188 133.78125 -87.859375 133.78125 -71.203125 L 133.78125 0 L 122.109375 0 L 122.109375 -70.28125 C 122.109375 -83.96875 118.644531 -94.390625 111.71875 -101.546875 C 104.789062 -108.710938 95.097656 -112.296875 82.640625 -112.296875 C 68.328125 -112.296875 57.046875 -108.015625 48.796875 -99.453125 C 40.546875 -90.890625 36.421875 -79.375 36.421875 -64.90625 L 36.421875 0 L 24.75 0 L 24.75 -121.875 L 35.953125 -121.875 L 35.953125 -95.484375 C 40.160156 -104.046875 46.425781 -110.738281 54.75 -115.5625 C 63.070312 -120.382812 72.914062 -122.796875 84.28125 -122.796875 Z M 84.28125 -122.796875 "/></g></g></g><g fill="#000000" fill-opacity="1"><g transform="translate(641.327293, 713.477833)"><g><path d="M 65.84375 -122.796875 C 80.9375 -122.796875 92.53125 -118.941406 100.625 -111.234375 C 108.71875 -103.535156 112.765625 -92.21875 112.765625 -77.28125 L 112.765625 0 L 101.5625 0 L 101.5625 -21.71875 C 97.664062 -14.550781 91.984375 -8.984375 84.515625 -5.015625 C 77.046875 -1.046875 68.097656 0.9375 57.671875 0.9375 C 44.128906 0.9375 33.425781 -2.25 25.5625 -8.625 C 17.707031 -15.007812 13.78125 -23.421875 13.78125 -33.859375 C 13.78125 -43.972656 17.394531 -52.179688 24.625 -58.484375 C 31.863281 -64.785156 43.421875 -67.9375 59.296875 -67.9375 L 101.09375 -67.9375 L 101.09375 -77.75 C 101.09375 -89.101562 98.015625 -97.738281 91.859375 -103.65625 C 85.710938 -109.570312 76.726562 -112.53125 64.90625 -112.53125 C 56.8125 -112.53125 49.066406 -111.128906 41.671875 -108.328125 C 34.273438 -105.523438 28.007812 -101.789062 22.875 -97.125 L 17.046875 -105.53125 C 23.117188 -110.976562 30.429688 -115.21875 38.984375 -118.25 C 47.546875 -121.28125 56.5 -122.796875 65.84375 -122.796875 Z M 59.296875 -8.640625 C 69.410156 -8.640625 78.007812 -10.972656 85.09375 -15.640625 C 92.175781 -20.304688 97.507812 -27.078125 101.09375 -35.953125 L 101.09375 -58.828125 L 59.53125 -58.828125 C 47.550781 -58.828125 38.875 -56.648438 33.5 -52.296875 C 28.132812 -47.941406 25.453125 -41.945312 25.453125 -34.3125 C 25.453125 -26.375 28.40625 -20.109375 34.3125 -15.515625 C 40.226562 -10.929688 48.554688 -8.640625 59.296875 -8.640625 Z M 59.296875 -8.640625 "/></g></g></g><g fill="#000000" fill-opacity="1"><g transform="translate(804.519003, 713.477833)"><g><path d="M 24.75 -173.234375 L 36.421875 -173.234375 L 36.421875 0 L 24.75 0 Z M 24.75 -173.234375 "/></g></g></g><g fill="#000000" fill-opacity="1"><g transform="translate(892.553271, 713.477833)"><g/></g></g></g></g></g></g></g></g></mask><clipPath id="0ebb9d199a"><path d="M 0 21.253906 L 1447.011719 21.253906 L 1447.011719 1239.941406 L 0 1239.941406 Z M 0 21.253906 " clip-rule="nonzero"/></clipPath><clipPath id="342a723a58"><rect x="0" width="1448" y="0" height="1261"/></clipPath><clipPath id="f84be3ff4a"><rect x="0" width="1448" y="0" height="1261"/></clipPath><clipPath id="7a467fae16"><rect x="0" width="1448" y="0" height="1262"/></clipPath><clipPath id="f4877192e5"><rect x="0" width="593" y="0" height="287"/></clipPath></defs><g clip-path="url(#bab1b061d7)"><path fill="#f7f7f7" d="M 179.667969 605.839844 C 169.449219 610.160156 160.265625 616.34375 152.382812 624.222656 C 144.5 632.101562 138.308594 641.273438 133.988281 651.492188 C 129.507812 662.066406 127.238281 673.300781 127.238281 684.882812 L 128.113281 684.882812 C 128.113281 638.0625 166.230469 599.96875 213.085938 599.96875 C 259.9375 599.96875 298.054688 638.0625 298.054688 684.882812 L 298.929688 684.882812 C 298.929688 673.300781 296.660156 662.066406 292.183594 651.492188 C 287.859375 641.273438 281.671875 632.101562 273.785156 624.222656 C 265.902344 616.34375 256.722656 610.160156 246.5 605.839844 C 235.917969 601.363281 224.675781 599.097656 213.085938 599.097656 C 201.496094 599.097656 190.253906 601.363281 179.667969 605.839844 Z M 179.667969 605.839844 " fill-opacity="1" fill-rule="nonzero"/></g><path fill="#f1f1f2" d="M 281.84375 655.855469 C 278.085938 646.972656 272.703125 638.996094 265.851562 632.152344 C 259.003906 625.304688 251.019531 619.925781 242.132812 616.167969 C 232.941406 612.285156 223.167969 610.308594 213.085938 610.308594 C 203 610.308594 193.226562 612.285156 184.035156 616.167969 C 175.148438 619.925781 167.164062 625.304688 160.316406 632.152344 C 153.46875 638.996094 148.082031 646.972656 144.324219 655.855469 C 140.4375 665.039062 138.457031 674.804688 138.457031 684.882812 L 139.332031 684.882812 C 139.332031 644.242188 172.417969 611.179688 213.085938 611.179688 C 253.75 611.179688 286.835938 644.242188 286.835938 684.882812 L 287.710938 684.882812 C 287.710938 674.804688 285.730469 665.039062 281.84375 655.855469 Z M 281.84375 655.855469 " fill-opacity="1" fill-rule="nonzero"/><path fill="#d0d2d3" d="M 271.507812 660.21875 C 268.3125 652.671875 263.734375 645.890625 257.917969 640.078125 C 252.101562 634.269531 245.316406 629.691406 237.765625 626.5 C 229.96875 623.203125 221.660156 621.519531 213.082031 621.519531 C 204.503906 621.519531 196.199219 623.203125 188.402344 626.5 C 180.851562 629.691406 174.066406 634.269531 168.25 640.078125 C 162.433594 645.890625 157.855469 652.671875 154.660156 660.21875 C 151.363281 668.007812 149.675781 676.308594 149.675781 684.882812 L 150.550781 684.882812 C 150.550781 650.425781 178.601562 622.390625 213.082031 622.390625 C 247.566406 622.390625 275.617188 650.425781 275.617188 684.882812 L 276.492188 684.882812 C 276.492188 676.308594 274.804688 668.007812 271.507812 660.21875 Z M 271.507812 660.21875 " fill-opacity="1" fill-rule="nonzero"/><path fill="#a6a8ab" d="M 261.167969 664.582031 C 258.539062 658.367188 254.765625 652.785156 249.984375 648.007812 C 245.203125 643.230469 239.617188 639.460938 233.398438 636.832031 C 226.996094 634.125 220.15625 632.730469 213.085938 632.730469 C 206.011719 632.730469 199.171875 634.125 192.769531 636.832031 C 186.550781 639.460938 180.964844 643.230469 176.183594 648.007812 C 171.40625 652.785156 167.628906 658.367188 165 664.582031 C 162.289062 670.976562 160.894531 677.8125 160.894531 684.882812 L 161.769531 684.882812 C 161.769531 656.605469 184.789062 633.601562 213.085938 633.601562 C 241.378906 633.601562 264.398438 656.605469 264.398438 684.882812 L 265.273438 684.882812 C 265.273438 677.8125 263.878906 670.976562 261.167969 664.582031 Z M 261.167969 664.582031 " fill-opacity="1" fill-rule="nonzero"/><path fill="#808184" d="M 250.832031 668.945312 C 248.765625 664.066406 245.796875 659.679688 242.050781 655.9375 C 238.304688 652.191406 233.914062 649.226562 229.03125 647.160156 C 224.023438 645.042969 218.652344 643.941406 213.085938 643.941406 C 207.515625 643.941406 202.144531 645.042969 197.136719 647.160156 C 192.253906 649.226562 187.863281 652.191406 184.117188 655.933594 C 180.371094 659.679688 177.40625 664.066406 175.335938 668.945312 C 173.21875 673.949219 172.113281 679.316406 172.113281 684.882812 L 172.988281 684.882812 C 172.988281 662.789062 190.976562 644.8125 213.085938 644.8125 C 235.195312 644.8125 253.179688 662.789062 253.179688 684.882812 L 254.054688 684.882812 C 254.054688 679.316406 252.949219 673.949219 250.832031 668.945312 Z M 250.832031 668.945312 " fill-opacity="1" fill-rule="nonzero"/><path fill="#58595b" d="M 240.492188 673.308594 C 238.992188 669.765625 236.828125 666.574219 234.117188 663.863281 C 231.40625 661.15625 228.214844 658.992188 224.664062 657.492188 C 221.050781 655.960938 217.148438 655.152344 213.082031 655.152344 C 209.019531 655.152344 205.117188 655.960938 201.503906 657.492188 C 197.957031 658.992188 194.761719 661.15625 192.050781 663.863281 C 189.339844 666.574219 187.179688 669.761719 185.675781 673.308594 C 184.144531 676.917969 183.332031 680.820312 183.332031 684.882812 L 184.207031 684.882812 C 184.207031 668.96875 197.160156 656.023438 213.085938 656.023438 C 229.007812 656.023438 241.960938 668.96875 241.960938 684.882812 L 242.835938 684.882812 C 242.835938 680.820312 242.023438 676.917969 240.492188 673.308594 Z M 240.492188 673.308594 " fill-opacity="1" fill-rule="nonzero"/><path fill="#231f20" d="M 213.085938 666.363281 C 202.867188 666.363281 194.550781 674.667969 194.550781 684.882812 L 195.425781 684.882812 C 195.425781 675.152344 203.347656 667.234375 213.085938 667.234375 C 222.820312 667.234375 230.742188 675.152344 230.742188 684.882812 L 231.617188 684.882812 C 231.617188 674.667969 223.304688 666.363281 213.085938 666.363281 Z M 213.085938 666.363281 " fill-opacity="1" fill-rule="nonzero"/><g clip-path="url(#699dc9fa34)"><path fill="#231f20" d="M 214.191406 676.378906 C 214.734375 676.378906 215.269531 676.433594 215.800781 676.539062 C 216.332031 676.644531 216.84375 676.800781 217.34375 677.007812 C 217.84375 677.214844 218.320312 677.46875 218.769531 677.769531 C 219.21875 678.066406 219.636719 678.410156 220.019531 678.792969 C 220.398438 679.171875 220.742188 679.589844 221.042969 680.039062 C 221.34375 680.488281 221.597656 680.964844 221.804688 681.460938 C 222.011719 681.960938 222.167969 682.476562 222.273438 683.007812 C 222.378906 683.535156 222.429688 684.074219 222.429688 684.613281 C 222.429688 685.152344 222.378906 685.6875 222.273438 686.21875 C 222.167969 686.75 222.011719 687.265625 221.804688 687.761719 C 221.597656 688.261719 221.34375 688.738281 221.042969 689.1875 C 220.742188 689.636719 220.398438 690.050781 220.019531 690.433594 C 219.636719 690.816406 219.21875 691.15625 218.769531 691.457031 C 218.320312 691.757812 217.84375 692.011719 217.34375 692.21875 C 216.84375 692.425781 216.332031 692.582031 215.800781 692.6875 C 215.269531 692.792969 214.734375 692.847656 214.191406 692.847656 C 213.652344 692.847656 213.117188 692.792969 212.585938 692.6875 C 212.054688 692.582031 211.539062 692.425781 211.039062 692.21875 C 210.539062 692.011719 210.066406 691.757812 209.617188 691.457031 C 209.164062 691.15625 208.75 690.816406 208.367188 690.433594 C 207.984375 690.050781 207.644531 689.636719 207.34375 689.1875 C 207.042969 688.738281 206.789062 688.261719 206.582031 687.761719 C 206.375 687.265625 206.21875 686.75 206.113281 686.21875 C 206.007812 685.6875 205.953125 685.152344 205.953125 684.613281 C 205.953125 684.074219 206.007812 683.535156 206.113281 683.007812 C 206.21875 682.476562 206.375 681.960938 206.582031 681.460938 C 206.789062 680.964844 207.042969 680.488281 207.34375 680.039062 C 207.644531 679.589844 207.984375 679.171875 208.367188 678.792969 C 208.75 678.410156 209.164062 678.066406 209.613281 677.769531 C 210.066406 677.46875 210.539062 677.214844 211.039062 677.007812 C 211.539062 676.800781 212.054688 676.644531 212.585938 676.539062 C 213.117188 676.433594 213.652344 676.378906 214.191406 676.378906 Z M 214.191406 676.378906 " fill-opacity="1" fill-rule="nonzero"/></g><g transform="matrix(1, 0, 0, 1, 0, 130)"><g clip-path="url(#7a467fae16)"><g clip-path="url(#ccc6769038)"><g transform="matrix(1, 0, 0, 1, 0, 0.000000000000113687)"><g clip-path="url(#f84be3ff4a)"><g clip-path="url(#70f06188e1)"><g mask="url(#08fd6af5be)"><g transform="matrix(1, 0, 0, 1, 0, 0.000000000000113687)"><g clip-path="url(#342a723a58)"><g clip-path="url(#0ebb9d199a)"><path fill="url(#3a5756e74d)" d="M 0 21.253906 L 0 1239.941406 L 1447.011719 1239.941406 L 1447.011719 21.253906 Z M 0 21.253906 " fill-rule="nonzero"/></g></g></g></g></g></g></g></g></g></g><g transform="matrix(1, 0, 0, 1, 907, 617)"><g clip-path="url(#f4877192e5)"><g fill="#4d917f" fill-opacity="1"><g transform="translate(4.528099, 227.611294)"><g><path d="M 126.171875 -31.828125 L 56.875 -31.828125 L 44 0 L -3.28125 0 L 69.046875 -163.859375 L 114.703125 -163.859375 L 187.265625 0 L 139.046875 0 Z M 112.59375 -66.015625 L 91.53125 -118.4375 L 70.453125 -66.015625 Z M 112.59375 -66.015625 "/></g></g></g><g fill="#4d917f" fill-opacity="1"><g transform="translate(211.912963, 227.611294)"><g><path d="M 88.015625 -43.53125 L 62.734375 -43.53125 L 62.734375 0 L 16.390625 0 L 16.390625 -163.859375 L 91.296875 -163.859375 C 106.117188 -163.859375 118.988281 -161.398438 129.90625 -156.484375 C 140.832031 -151.566406 149.257812 -144.539062 155.1875 -135.40625 C 161.125 -126.28125 164.09375 -115.554688 164.09375 -103.234375 C 164.09375 -91.367188 161.320312 -81.023438 155.78125 -72.203125 C 150.238281 -63.390625 142.316406 -56.488281 132.015625 -51.5 L 167.359375 0 L 117.734375 0 Z M 117.265625 -103.234375 C 117.265625 -110.878906 114.847656 -116.804688 110.015625 -121.015625 C 105.179688 -125.234375 98.003906 -127.34375 88.484375 -127.34375 L 62.734375 -127.34375 L 62.734375 -79.359375 L 88.484375 -79.359375 C 98.003906 -79.359375 105.179688 -81.425781 110.015625 -85.5625 C 114.847656 -89.695312 117.265625 -95.585938 117.265625 -103.234375 Z M 117.265625 -103.234375 "/></g></g></g><g fill="#4d917f" fill-opacity="1"><g transform="translate(408.530715, 227.611294)"><g><path d="M 98.078125 3.28125 C 80.910156 3.28125 65.5 -0.34375 51.84375 -7.59375 C 38.1875 -14.851562 27.457031 -24.957031 19.65625 -37.90625 C 11.851562 -50.863281 7.953125 -65.535156 7.953125 -81.921875 C 7.953125 -98.304688 11.851562 -112.972656 19.65625 -125.921875 C 27.457031 -138.878906 38.1875 -148.984375 51.84375 -156.234375 C 65.5 -163.492188 80.910156 -167.125 98.078125 -167.125 C 113.054688 -167.125 126.550781 -164.472656 138.5625 -159.171875 C 150.582031 -153.867188 160.570312 -146.222656 168.53125 -136.234375 L 139.046875 -109.546875 C 128.429688 -122.347656 115.554688 -128.75 100.421875 -128.75 C 91.523438 -128.75 83.601562 -126.796875 76.65625 -122.890625 C 69.71875 -118.992188 64.335938 -113.492188 60.515625 -106.390625 C 56.691406 -99.285156 54.78125 -91.128906 54.78125 -81.921875 C 54.78125 -72.710938 56.691406 -64.554688 60.515625 -57.453125 C 64.335938 -50.359375 69.71875 -44.859375 76.65625 -40.953125 C 83.601562 -37.054688 91.523438 -35.109375 100.421875 -35.109375 C 115.554688 -35.109375 128.429688 -41.507812 139.046875 -54.3125 L 168.53125 -27.625 C 160.570312 -17.632812 150.582031 -9.984375 138.5625 -4.671875 C 126.550781 0.628906 113.054688 3.28125 98.078125 3.28125 Z M 98.078125 3.28125 "/></g></g></g></g></g></svg>
