<svg xmlns="http://www.w3.org/2000/svg" xmlns:xlink="http://www.w3.org/1999/xlink" width="2550" zoomAndPan="magnify" viewBox="0 0 1912.5 749.999995" height="1000" preserveAspectRatio="xMidYMid meet" version="1.0"><defs><filter x="0%" y="0%" width="100%" height="100%" id="5a77041fbb"><feColorMatrix values="0 0 0 0 1 0 0 0 0 1 0 0 0 0 1 0 0 0 1 0" color-interpolation-filters="sRGB"/></filter><g/><clipPath id="0bfa45f39e"><path d="M 167.394531 180.128906 L 363.09375 180.128906 L 363.09375 279 L 167.394531 279 Z M 167.394531 180.128906 " clip-rule="nonzero"/></clipPath><clipPath id="00275ba1a5"><path d="M 257 268 L 276 268 L 276 287.351562 L 257 287.351562 Z M 257 268 " clip-rule="nonzero"/></clipPath><clipPath id="5afc3fb8b5"><path d="M 0 0.0976562 L 1801 0.0976562 L 1801 749.902344 L 0 749.902344 Z M 0 0.0976562 " clip-rule="nonzero"/></clipPath><clipPath id="9b0f238648"><path d="M 0 0.0976562 L 1799.867188 0.0976562 L 1799.867188 749.902344 L 0 749.902344 Z M 0 0.0976562 " clip-rule="nonzero"/></clipPath><clipPath id="4ed21c9b79"><path d="M 0 0.0976562 L 1799.867188 0.0976562 L 1799.867188 749.902344 L 0 749.902344 Z M 0 0.0976562 " clip-rule="nonzero"/></clipPath><clipPath id="3b9b8fa232"><path d="M 0 0.0976562 L 1799.867188 0.0976562 L 1799.867188 749.902344 L 0 749.902344 Z M 0 0.0976562 " clip-rule="nonzero"/></clipPath><linearGradient x1="413.81299" gradientTransform="matrix(1.452322, 0, 0, 1.451973, 16.982356, 171.72376)" y1="398.201741" x2="413.81299" gradientUnits="userSpaceOnUse" y2="-118.201728" id="02c781a841"><stop stop-opacity="1" stop-color="rgb(6.669617%, 19.999695%, 12.548828%)" offset="0"/><stop stop-opacity="1" stop-color="rgb(6.669617%, 19.999695%, 12.548828%)" offset="0.25"/><stop stop-opacity="1" stop-color="rgb(6.70166%, 20.13855%, 12.692261%)" offset="0.265625"/><stop stop-opacity="1" stop-color="rgb(6.871033%, 20.861816%, 13.432312%)" offset="0.269531"/><stop stop-opacity="1" stop-color="rgb(7.006836%, 21.446228%, 14.028931%)" offset="0.273438"/><stop stop-opacity="1" stop-color="rgb(7.142639%, 22.029114%, 14.625549%)" offset="0.277344"/><stop stop-opacity="1" stop-color="rgb(7.278442%, 22.613525%, 15.222168%)" offset="0.28125"/><stop stop-opacity="1" stop-color="rgb(7.414246%, 23.196411%, 15.818787%)" offset="0.285156"/><stop stop-opacity="1" stop-color="rgb(7.551575%, 23.780823%, 16.415405%)" offset="0.289062"/><stop stop-opacity="1" stop-color="rgb(7.687378%, 24.363708%, 17.012024%)" offset="0.292969"/><stop stop-opacity="1" stop-color="rgb(7.823181%, 24.946594%, 17.608643%)" offset="0.296875"/><stop stop-opacity="1" stop-color="rgb(7.958984%, 25.52948%, 18.203735%)" offset="0.300781"/><stop stop-opacity="1" stop-color="rgb(8.094788%, 26.113892%, 18.800354%)" offset="0.304688"/><stop stop-opacity="1" stop-color="rgb(8.230591%, 26.696777%, 19.396973%)" offset="0.308594"/><stop stop-opacity="1" stop-color="rgb(8.36792%, 27.281189%, 19.993591%)" offset="0.3125"/><stop stop-opacity="1" stop-color="rgb(8.503723%, 27.864075%, 20.59021%)" offset="0.316406"/><stop stop-opacity="1" stop-color="rgb(8.639526%, 28.448486%, 21.186829%)" offset="0.320312"/><stop stop-opacity="1" stop-color="rgb(8.77533%, 29.031372%, 21.783447%)" offset="0.324219"/><stop stop-opacity="1" stop-color="rgb(8.911133%, 29.615784%, 22.380066%)" offset="0.328125"/><stop stop-opacity="1" stop-color="rgb(9.046936%, 30.198669%, 22.976685%)" offset="0.332031"/><stop stop-opacity="1" stop-color="rgb(9.184265%, 30.781555%, 23.573303%)" offset="0.335938"/><stop stop-opacity="1" stop-color="rgb(9.320068%, 31.364441%, 24.169922%)" offset="0.339844"/><stop stop-opacity="1" stop-color="rgb(9.455872%, 31.948853%, 24.766541%)" offset="0.34375"/><stop stop-opacity="1" stop-color="rgb(9.591675%, 32.531738%, 25.363159%)" offset="0.347656"/><stop stop-opacity="1" stop-color="rgb(9.729004%, 33.11615%, 25.959778%)" offset="0.351562"/><stop stop-opacity="1" stop-color="rgb(9.864807%, 33.699036%, 26.556396%)" offset="0.355469"/><stop stop-opacity="1" stop-color="rgb(10.00061%, 34.283447%, 27.153015%)" offset="0.359375"/><stop stop-opacity="1" stop-color="rgb(10.136414%, 34.866333%, 27.749634%)" offset="0.363281"/><stop stop-opacity="1" stop-color="rgb(10.272217%, 35.450745%, 28.346252%)" offset="0.367188"/><stop stop-opacity="1" stop-color="rgb(10.40802%, 36.03363%, 28.942871%)" offset="0.371094"/><stop stop-opacity="1" stop-color="rgb(10.545349%, 36.616516%, 29.53949%)" offset="0.375"/><stop stop-opacity="1" stop-color="rgb(10.681152%, 37.199402%, 30.136108%)" offset="0.378906"/><stop stop-opacity="1" stop-color="rgb(10.816956%, 37.783813%, 30.732727%)" offset="0.382812"/><stop stop-opacity="1" stop-color="rgb(10.952759%, 38.366699%, 31.329346%)" offset="0.386719"/><stop stop-opacity="1" stop-color="rgb(11.088562%, 38.951111%, 31.925964%)" offset="0.390625"/><stop stop-opacity="1" stop-color="rgb(11.224365%, 39.533997%, 32.522583%)" offset="0.394531"/><stop stop-opacity="1" stop-color="rgb(11.361694%, 40.118408%, 33.119202%)" offset="0.398437"/><stop stop-opacity="1" stop-color="rgb(11.497498%, 40.701294%, 33.71582%)" offset="0.402344"/><stop stop-opacity="1" stop-color="rgb(11.633301%, 41.285706%, 34.312439%)" offset="0.40625"/><stop stop-opacity="1" stop-color="rgb(11.769104%, 41.868591%, 34.907532%)" offset="0.410156"/><stop stop-opacity="1" stop-color="rgb(11.904907%, 42.451477%, 35.50415%)" offset="0.414062"/><stop stop-opacity="1" stop-color="rgb(12.04071%, 43.034363%, 36.100769%)" offset="0.417969"/><stop stop-opacity="1" stop-color="rgb(12.17804%, 43.618774%, 36.697388%)" offset="0.421875"/><stop stop-opacity="1" stop-color="rgb(12.313843%, 44.20166%, 37.294006%)" offset="0.425781"/><stop stop-opacity="1" stop-color="rgb(12.449646%, 44.786072%, 37.890625%)" offset="0.429687"/><stop stop-opacity="1" stop-color="rgb(12.585449%, 45.368958%, 38.487244%)" offset="0.433594"/><stop stop-opacity="1" stop-color="rgb(12.721252%, 45.953369%, 39.083862%)" offset="0.4375"/><stop stop-opacity="1" stop-color="rgb(12.857056%, 46.536255%, 39.680481%)" offset="0.441406"/><stop stop-opacity="1" stop-color="rgb(12.994385%, 47.120667%, 40.2771%)" offset="0.445312"/><stop stop-opacity="1" stop-color="rgb(13.130188%, 47.703552%, 40.873718%)" offset="0.449219"/><stop stop-opacity="1" stop-color="rgb(13.265991%, 48.287964%, 41.470337%)" offset="0.453125"/><stop stop-opacity="1" stop-color="rgb(13.401794%, 48.87085%, 42.066956%)" offset="0.457031"/><stop stop-opacity="1" stop-color="rgb(13.539124%, 49.453735%, 42.663574%)" offset="0.460938"/><stop stop-opacity="1" stop-color="rgb(13.674927%, 50.036621%, 43.260193%)" offset="0.464844"/><stop stop-opacity="1" stop-color="rgb(13.81073%, 50.621033%, 43.856812%)" offset="0.46875"/><stop stop-opacity="1" stop-color="rgb(13.946533%, 51.203918%, 44.45343%)" offset="0.472656"/><stop stop-opacity="1" stop-color="rgb(14.082336%, 51.78833%, 45.050049%)" offset="0.476562"/><stop stop-opacity="1" stop-color="rgb(14.21814%, 52.371216%, 45.646667%)" offset="0.480469"/><stop stop-opacity="1" stop-color="rgb(14.355469%, 52.955627%, 46.243286%)" offset="0.484375"/><stop stop-opacity="1" stop-color="rgb(14.491272%, 53.538513%, 46.839905%)" offset="0.488281"/><stop stop-opacity="1" stop-color="rgb(14.627075%, 54.122925%, 47.436523%)" offset="0.492187"/><stop stop-opacity="1" stop-color="rgb(14.762878%, 54.705811%, 48.033142%)" offset="0.496094"/><stop stop-opacity="1" stop-color="rgb(14.898682%, 55.288696%, 48.629761%)" offset="0.5"/><stop stop-opacity="1" stop-color="rgb(15.910339%, 56.027222%, 48.99292%)" offset="0.503906"/><stop stop-opacity="1" stop-color="rgb(16.921997%, 56.767273%, 49.356079%)" offset="0.507812"/><stop stop-opacity="1" stop-color="rgb(17.933655%, 57.505798%, 49.717712%)" offset="0.511719"/><stop stop-opacity="1" stop-color="rgb(18.945312%, 58.24585%, 50.080872%)" offset="0.515625"/><stop stop-opacity="1" stop-color="rgb(19.95697%, 58.984375%, 50.444031%)" offset="0.519531"/><stop stop-opacity="1" stop-color="rgb(20.968628%, 59.724426%, 50.80719%)" offset="0.523437"/><stop stop-opacity="1" stop-color="rgb(21.980286%, 60.462952%, 51.170349%)" offset="0.527344"/><stop stop-opacity="1" stop-color="rgb(22.991943%, 61.203003%, 51.533508%)" offset="0.53125"/><stop stop-opacity="1" stop-color="rgb(24.003601%, 61.941528%, 51.896667%)" offset="0.535156"/><stop stop-opacity="1" stop-color="rgb(25.015259%, 62.68158%, 52.259827%)" offset="0.539062"/><stop stop-opacity="1" stop-color="rgb(26.026917%, 63.420105%, 52.622986%)" offset="0.542969"/><stop stop-opacity="1" stop-color="rgb(27.038574%, 64.160156%, 52.986145%)" offset="0.546875"/><stop stop-opacity="1" stop-color="rgb(28.050232%, 64.898682%, 53.349304%)" offset="0.550781"/><stop stop-opacity="1" stop-color="rgb(29.06189%, 65.638733%, 53.712463%)" offset="0.554688"/><stop stop-opacity="1" stop-color="rgb(30.073547%, 66.377258%, 54.075623%)" offset="0.558594"/><stop stop-opacity="1" stop-color="rgb(31.085205%, 67.11731%, 54.438782%)" offset="0.5625"/><stop stop-opacity="1" stop-color="rgb(32.095337%, 67.855835%, 54.801941%)" offset="0.566406"/><stop stop-opacity="1" stop-color="rgb(33.106995%, 68.595886%, 55.1651%)" offset="0.570312"/><stop stop-opacity="1" stop-color="rgb(34.118652%, 69.334412%, 55.528259%)" offset="0.574219"/><stop stop-opacity="1" stop-color="rgb(35.13031%, 70.074463%, 55.891418%)" offset="0.578125"/><stop stop-opacity="1" stop-color="rgb(36.141968%, 70.812988%, 56.254578%)" offset="0.582031"/><stop stop-opacity="1" stop-color="rgb(37.153625%, 71.55304%, 56.617737%)" offset="0.585938"/><stop stop-opacity="1" stop-color="rgb(38.165283%, 72.291565%, 56.980896%)" offset="0.589844"/><stop stop-opacity="1" stop-color="rgb(39.176941%, 73.031616%, 57.344055%)" offset="0.59375"/><stop stop-opacity="1" stop-color="rgb(40.188599%, 73.770142%, 57.707214%)" offset="0.597656"/><stop stop-opacity="1" stop-color="rgb(41.200256%, 74.510193%, 58.070374%)" offset="0.601562"/><stop stop-opacity="1" stop-color="rgb(42.211914%, 75.248718%, 58.433533%)" offset="0.605469"/><stop stop-opacity="1" stop-color="rgb(43.223572%, 75.98877%, 58.796692%)" offset="0.609375"/><stop stop-opacity="1" stop-color="rgb(44.235229%, 76.727295%, 59.158325%)" offset="0.613281"/><stop stop-opacity="1" stop-color="rgb(45.246887%, 77.467346%, 59.521484%)" offset="0.617188"/><stop stop-opacity="1" stop-color="rgb(46.258545%, 78.205872%, 59.884644%)" offset="0.621094"/><stop stop-opacity="1" stop-color="rgb(47.270203%, 78.945923%, 60.247803%)" offset="0.625"/><stop stop-opacity="1" stop-color="rgb(48.28186%, 79.684448%, 60.610962%)" offset="0.628906"/><stop stop-opacity="1" stop-color="rgb(49.293518%, 80.4245%, 60.974121%)" offset="0.632812"/><stop stop-opacity="1" stop-color="rgb(50.30365%, 81.163025%, 61.33728%)" offset="0.636719"/><stop stop-opacity="1" stop-color="rgb(51.315308%, 81.903076%, 61.700439%)" offset="0.640625"/><stop stop-opacity="1" stop-color="rgb(52.326965%, 82.641602%, 62.063599%)" offset="0.644531"/><stop stop-opacity="1" stop-color="rgb(53.338623%, 83.381653%, 62.426758%)" offset="0.648438"/><stop stop-opacity="1" stop-color="rgb(54.350281%, 84.120178%, 62.789917%)" offset="0.652344"/><stop stop-opacity="1" stop-color="rgb(55.361938%, 84.858704%, 63.153076%)" offset="0.65625"/><stop stop-opacity="1" stop-color="rgb(56.373596%, 85.597229%, 63.516235%)" offset="0.660156"/><stop stop-opacity="1" stop-color="rgb(57.385254%, 86.33728%, 63.879395%)" offset="0.664062"/><stop stop-opacity="1" stop-color="rgb(58.396912%, 87.075806%, 64.242554%)" offset="0.667969"/><stop stop-opacity="1" stop-color="rgb(59.408569%, 87.815857%, 64.605713%)" offset="0.671875"/><stop stop-opacity="1" stop-color="rgb(60.420227%, 88.554382%, 64.968872%)" offset="0.675781"/><stop stop-opacity="1" stop-color="rgb(61.431885%, 89.294434%, 65.332031%)" offset="0.679688"/><stop stop-opacity="1" stop-color="rgb(62.443542%, 90.032959%, 65.69519%)" offset="0.683594"/><stop stop-opacity="1" stop-color="rgb(63.4552%, 90.77301%, 66.05835%)" offset="0.6875"/><stop stop-opacity="1" stop-color="rgb(64.466858%, 91.511536%, 66.421509%)" offset="0.691406"/><stop stop-opacity="1" stop-color="rgb(65.478516%, 92.251587%, 66.784668%)" offset="0.695312"/><stop stop-opacity="1" stop-color="rgb(66.490173%, 92.990112%, 67.147827%)" offset="0.699219"/><stop stop-opacity="1" stop-color="rgb(67.501831%, 93.730164%, 67.510986%)" offset="0.703125"/><stop stop-opacity="1" stop-color="rgb(68.511963%, 94.468689%, 67.87262%)" offset="0.707031"/><stop stop-opacity="1" stop-color="rgb(69.523621%, 95.20874%, 68.235779%)" offset="0.710937"/><stop stop-opacity="1" stop-color="rgb(70.535278%, 95.947266%, 68.598938%)" offset="0.714844"/><stop stop-opacity="1" stop-color="rgb(71.546936%, 96.687317%, 68.962097%)" offset="0.71875"/><stop stop-opacity="1" stop-color="rgb(72.558594%, 97.425842%, 69.325256%)" offset="0.722656"/><stop stop-opacity="1" stop-color="rgb(73.570251%, 98.165894%, 69.688416%)" offset="0.726562"/><stop stop-opacity="1" stop-color="rgb(74.581909%, 98.904419%, 70.051575%)" offset="0.730469"/><stop stop-opacity="1" stop-color="rgb(75.593567%, 99.64447%, 70.414734%)" offset="0.734375"/><stop stop-opacity="1" stop-color="rgb(75.836182%, 99.821472%, 70.501709%)" offset="0.738281"/><stop stop-opacity="1" stop-color="rgb(76.078796%, 100%, 70.588684%)" offset="0.742188"/><stop stop-opacity="1" stop-color="rgb(76.078796%, 100%, 70.588684%)" offset="0.75"/><stop stop-opacity="1" stop-color="rgb(76.078796%, 100%, 70.588684%)" offset="1"/></linearGradient><clipPath id="86d833cdf6"><rect x="0" width="1800" y="0" height="750"/></clipPath><clipPath id="4b7f978eca"><path d="M 0 0.0976562 L 1799.867188 0.0976562 L 1799.867188 749.902344 L 0 749.902344 Z M 0 0.0976562 " clip-rule="nonzero"/></clipPath><clipPath id="6ef62dfd5f"><rect x="0" width="1800" y="0" height="750"/></clipPath><clipPath id="ceabe0ceb7"><rect x="0" width="1800" y="0" height="750"/></clipPath><mask id="0c193bd4a1"><g filter="url(#5a77041fbb)"><g transform="matrix(1, 0, 0, 1, 0, 0.00000000000001675)"><g clip-path="url(#ceabe0ceb7)"><g clip-path="url(#4b7f978eca)"><g transform="matrix(1, 0, 0, 1, 0, 0.00000000000001675)"><g clip-path="url(#6ef62dfd5f)"><g fill="#000000" fill-opacity="1"><g transform="translate(16.842888, 478.090096)"><g><path d="M 88.859375 1.453125 C 73.953125 1.453125 59.769531 -1.109375 46.3125 -6.234375 C 32.863281 -11.367188 22.363281 -18.003906 14.8125 -26.140625 L 21.484375 -37.171875 C 28.648438 -29.617188 38.28125 -23.46875 50.375 -18.71875 C 62.476562 -13.976562 75.207031 -11.609375 88.5625 -11.609375 C 107.925781 -11.609375 122.546875 -15.285156 132.421875 -22.640625 C 142.296875 -30.003906 147.234375 -39.59375 147.234375 -51.40625 C 147.234375 -60.5 144.617188 -67.753906 139.390625 -73.171875 C 134.160156 -78.597656 127.671875 -82.757812 119.921875 -85.65625 C 112.179688 -88.5625 101.726562 -91.566406 88.5625 -94.671875 C 73.65625 -98.347656 61.703125 -101.925781 52.703125 -105.40625 C 43.703125 -108.894531 36.054688 -114.269531 29.765625 -121.53125 C 23.472656 -128.789062 20.328125 -138.519531 20.328125 -150.71875 C 20.328125 -160.582031 22.941406 -169.628906 28.171875 -177.859375 C 33.398438 -186.085938 41.382812 -192.617188 52.125 -197.453125 C 62.863281 -202.296875 76.269531 -204.71875 92.34375 -204.71875 C 103.570312 -204.71875 114.601562 -203.070312 125.4375 -199.78125 C 136.28125 -196.5 145.671875 -192.050781 153.609375 -186.4375 L 148.09375 -174.53125 C 139.96875 -180.144531 131.015625 -184.398438 121.234375 -187.296875 C 111.460938 -190.203125 101.832031 -191.65625 92.34375 -191.65625 C 73.5625 -191.65625 59.332031 -187.878906 49.65625 -180.328125 C 39.976562 -172.773438 35.140625 -163 35.140625 -151 C 35.140625 -141.90625 37.75 -134.644531 42.96875 -129.21875 C 48.195312 -123.800781 54.679688 -119.640625 62.421875 -116.734375 C 70.171875 -113.828125 80.726562 -110.726562 94.09375 -107.4375 C 109 -103.757812 120.898438 -100.175781 129.796875 -96.6875 C 138.703125 -93.207031 146.300781 -87.9375 152.59375 -80.875 C 158.882812 -73.8125 162.03125 -64.273438 162.03125 -52.265625 C 162.03125 -42.390625 159.367188 -33.382812 154.046875 -25.25 C 148.722656 -17.125 140.546875 -10.640625 129.515625 -5.796875 C 118.484375 -0.960938 104.929688 1.453125 88.859375 1.453125 Z M 88.859375 1.453125 "/></g></g></g><g fill="#000000" fill-opacity="1"><g transform="translate(227.379032, 478.090096)"><g><path d="M 30.78125 -151.578125 L 45.296875 -151.578125 L 45.296875 0 L 30.78125 0 Z M 38.03125 -188.46875 C 34.75 -188.46875 31.945312 -189.578125 29.625 -191.796875 C 27.300781 -194.023438 26.140625 -196.785156 26.140625 -200.078125 C 26.140625 -203.367188 27.300781 -206.175781 29.625 -208.5 C 31.945312 -210.820312 34.75 -211.984375 38.03125 -211.984375 C 41.320312 -211.984375 44.128906 -210.867188 46.453125 -208.640625 C 48.773438 -206.421875 49.9375 -203.664062 49.9375 -200.375 C 49.9375 -197.082031 48.773438 -194.273438 46.453125 -191.953125 C 44.128906 -189.628906 41.320312 -188.46875 38.03125 -188.46875 Z M 38.03125 -188.46875 "/></g></g></g><g fill="#000000" fill-opacity="1"><g transform="translate(336.857816, 478.090096)"><g><path d="M 167.265625 -151.578125 L 167.265625 -16.265625 C 167.265625 8.898438 161.164062 27.484375 148.96875 39.484375 C 136.769531 51.492188 118.378906 57.5 93.796875 57.5 C 79.859375 57.5 66.691406 55.367188 54.296875 51.109375 C 41.910156 46.847656 31.941406 40.941406 24.390625 33.390625 L 32.234375 22.359375 C 39.785156 29.328125 48.882812 34.75 59.53125 38.625 C 70.175781 42.5 81.5 44.4375 93.5 44.4375 C 113.632812 44.4375 128.539062 39.644531 138.21875 30.0625 C 147.90625 20.476562 152.75 5.617188 152.75 -14.515625 L 152.75 -40.078125 C 146.550781 -29.035156 137.929688 -20.515625 126.890625 -14.515625 C 115.859375 -8.515625 103.472656 -5.515625 89.734375 -5.515625 C 75.597656 -5.515625 62.769531 -8.660156 51.25 -14.953125 C 39.726562 -21.242188 30.675781 -30.003906 24.09375 -41.234375 C 17.519531 -52.460938 14.234375 -65.144531 14.234375 -79.28125 C 14.234375 -93.40625 17.519531 -106.082031 24.09375 -117.3125 C 30.675781 -128.539062 39.726562 -137.253906 51.25 -143.453125 C 62.769531 -149.648438 75.597656 -152.75 89.734375 -152.75 C 103.671875 -152.75 116.253906 -149.648438 127.484375 -143.453125 C 138.710938 -137.253906 147.328125 -128.539062 153.328125 -117.3125 L 153.328125 -151.578125 Z M 90.890625 -18.578125 C 102.703125 -18.578125 113.347656 -21.140625 122.828125 -26.265625 C 132.316406 -31.398438 139.722656 -38.566406 145.046875 -47.765625 C 150.367188 -56.960938 153.03125 -67.46875 153.03125 -79.28125 C 153.03125 -91.082031 150.367188 -101.53125 145.046875 -110.625 C 139.722656 -119.726562 132.316406 -126.84375 122.828125 -131.96875 C 113.347656 -137.101562 102.703125 -139.671875 90.890625 -139.671875 C 79.078125 -139.671875 68.476562 -137.101562 59.09375 -131.96875 C 49.707031 -126.84375 42.351562 -119.726562 37.03125 -110.625 C 31.707031 -101.53125 29.046875 -91.082031 29.046875 -79.28125 C 29.046875 -67.46875 31.707031 -56.960938 37.03125 -47.765625 C 42.351562 -38.566406 49.707031 -31.398438 59.09375 -26.265625 C 68.476562 -21.140625 79.078125 -18.578125 90.890625 -18.578125 Z M 90.890625 -18.578125 "/></g></g></g><g fill="#000000" fill-opacity="1"><g transform="translate(568.592751, 478.090096)"><g><path d="M 104.828125 -152.75 C 123.804688 -152.75 138.8125 -147.226562 149.84375 -136.1875 C 160.875 -125.15625 166.390625 -109.28125 166.390625 -88.5625 L 166.390625 0 L 151.875 0 L 151.875 -87.40625 C 151.875 -104.445312 147.566406 -117.414062 138.953125 -126.3125 C 130.335938 -135.21875 118.285156 -139.671875 102.796875 -139.671875 C 84.984375 -139.671875 70.945312 -134.347656 60.6875 -123.703125 C 50.425781 -113.054688 45.296875 -98.734375 45.296875 -80.734375 L 45.296875 0 L 30.78125 0 L 30.78125 -151.578125 L 44.71875 -151.578125 L 44.71875 -118.765625 C 49.945312 -129.410156 57.738281 -137.734375 68.09375 -143.734375 C 78.445312 -149.742188 90.691406 -152.75 104.828125 -152.75 Z M 104.828125 -152.75 "/></g></g></g><g fill="#000000" fill-opacity="1"><g transform="translate(797.714176, 478.090096)"><g><path d="M 81.890625 -152.75 C 100.671875 -152.75 115.09375 -147.957031 125.15625 -138.375 C 135.226562 -128.789062 140.265625 -114.707031 140.265625 -96.125 L 140.265625 0 L 126.3125 0 L 126.3125 -27 C 121.476562 -18.09375 114.414062 -11.171875 105.125 -6.234375 C 95.832031 -1.304688 84.695312 1.15625 71.71875 1.15625 C 54.882812 1.15625 41.578125 -2.8125 31.796875 -10.75 C 22.023438 -18.6875 17.140625 -29.140625 17.140625 -42.109375 C 17.140625 -54.691406 21.640625 -64.898438 30.640625 -72.734375 C 39.640625 -80.578125 54.015625 -84.5 73.765625 -84.5 L 125.734375 -84.5 L 125.734375 -96.703125 C 125.734375 -110.835938 121.910156 -121.582031 114.265625 -128.9375 C 106.617188 -136.289062 95.441406 -139.96875 80.734375 -139.96875 C 70.660156 -139.96875 61.023438 -138.222656 51.828125 -134.734375 C 42.640625 -131.253906 34.847656 -126.609375 28.453125 -120.796875 L 21.203125 -131.25 C 28.753906 -138.03125 37.851562 -143.304688 48.5 -147.078125 C 59.144531 -150.859375 70.273438 -152.75 81.890625 -152.75 Z M 73.765625 -10.75 C 86.347656 -10.75 97.039062 -13.648438 105.84375 -19.453125 C 114.65625 -25.265625 121.285156 -33.6875 125.734375 -44.71875 L 125.734375 -73.171875 L 74.046875 -73.171875 C 59.140625 -73.171875 48.347656 -70.460938 41.671875 -65.046875 C 34.992188 -59.628906 31.65625 -52.175781 31.65625 -42.6875 C 31.65625 -32.8125 35.332031 -25.019531 42.6875 -19.3125 C 50.039062 -13.601562 60.398438 -10.75 73.765625 -10.75 Z M 73.765625 -10.75 "/></g></g></g><g fill="#000000" fill-opacity="1"><g transform="translate(1000.699997, 478.090096)"><g><path d="M 30.78125 -215.46875 L 45.296875 -215.46875 L 45.296875 0 L 30.78125 0 Z M 30.78125 -215.46875 "/></g></g></g><g fill="#000000" fill-opacity="1"><g transform="translate(1110.20132, 478.090096)"><g/></g></g></g></g></g></g></g></g></mask><clipPath id="c1b5e4d718"><path d="M 0 0.0976562 L 1799.867188 0.0976562 L 1799.867188 749.902344 L 0 749.902344 Z M 0 0.0976562 " clip-rule="nonzero"/></clipPath><clipPath id="1dc5fe7ee9"><rect x="0" width="1800" y="0" height="750"/></clipPath><clipPath id="6c3f0ce1c2"><rect x="0" width="1800" y="0" height="750"/></clipPath><clipPath id="4a9da24924"><rect x="0" width="1801" y="0" height="750"/></clipPath></defs><g clip-path="url(#0bfa45f39e)"><path fill="#f7f7f7" d="M 227.167969 187.839844 C 215.519531 192.78125 205.058594 199.855469 196.074219 208.867188 C 187.09375 217.878906 180.039062 228.371094 175.113281 240.054688 C 170.011719 252.148438 167.425781 265 167.425781 278.242188 L 168.421875 278.242188 C 168.421875 224.695312 211.855469 181.128906 265.246094 181.128906 C 318.636719 181.128906 362.070312 224.695312 362.070312 278.242188 L 363.066406 278.242188 C 363.066406 265 360.480469 252.148438 355.378906 240.054688 C 350.453125 228.371094 343.398438 217.878906 334.417969 208.867188 C 325.433594 199.855469 314.972656 192.78125 303.324219 187.839844 C 291.261719 182.722656 278.453125 180.128906 265.246094 180.128906 C 252.042969 180.128906 239.230469 182.722656 227.167969 187.839844 Z M 227.167969 187.839844 " fill-opacity="1" fill-rule="nonzero"/></g><path fill="#f1f1f2" d="M 343.597656 245.042969 C 339.316406 234.886719 333.179688 225.761719 325.375 217.933594 C 317.570312 210.105469 308.472656 203.953125 298.347656 199.65625 C 287.875 195.214844 276.734375 192.953125 265.246094 192.953125 C 253.753906 192.953125 242.617188 195.214844 232.144531 199.65625 C 222.015625 203.953125 212.921875 210.105469 205.117188 217.933594 C 197.3125 225.761719 191.175781 234.886719 186.890625 245.042969 C 182.460938 255.546875 180.207031 266.71875 180.207031 278.242188 L 181.203125 278.242188 C 181.203125 231.765625 218.90625 193.953125 265.246094 193.953125 C 311.585938 193.953125 349.285156 231.765625 349.285156 278.242188 L 350.28125 278.242188 C 350.28125 266.71875 348.027344 255.546875 343.597656 245.042969 Z M 343.597656 245.042969 " fill-opacity="1" fill-rule="nonzero"/><path fill="#d0d2d3" d="M 331.820312 250.035156 C 328.175781 241.402344 322.960938 233.648438 316.332031 227.003906 C 309.707031 220.355469 301.976562 215.125 293.367188 211.472656 C 284.484375 207.703125 275.019531 205.773438 265.246094 205.773438 C 255.46875 205.773438 246.003906 207.703125 237.121094 211.472656 C 228.515625 215.125 220.78125 220.355469 214.15625 227.003906 C 207.53125 233.648438 202.3125 241.402344 198.671875 250.035156 C 194.914062 258.945312 192.992188 268.441406 192.992188 278.242188 L 193.988281 278.242188 C 193.988281 238.835938 225.953125 206.773438 265.246094 206.773438 C 304.535156 206.773438 336.503906 238.835938 336.503906 278.242188 L 337.5 278.242188 C 337.5 268.4375 335.578125 258.945312 331.820312 250.035156 Z M 331.820312 250.035156 " fill-opacity="1" fill-rule="nonzero"/><path fill="#a6a8ab" d="M 320.039062 255.023438 C 317.039062 247.917969 312.742188 241.53125 307.292969 236.070312 C 301.847656 230.605469 295.480469 226.292969 288.394531 223.285156 C 281.101562 220.191406 273.304688 218.59375 265.246094 218.59375 C 257.1875 218.59375 249.390625 220.191406 242.097656 223.285156 C 235.011719 226.292969 228.644531 230.605469 223.195312 236.070312 C 217.75 241.53125 213.449219 247.917969 210.453125 255.023438 C 207.367188 262.339844 205.777344 270.160156 205.777344 278.242188 L 206.773438 278.242188 C 206.773438 245.902344 233.003906 219.59375 265.246094 219.59375 C 297.488281 219.59375 323.71875 245.90625 323.71875 278.242188 L 324.714844 278.242188 C 324.714844 270.160156 323.125 262.339844 320.039062 255.023438 Z M 320.039062 255.023438 " fill-opacity="1" fill-rule="nonzero"/><path fill="#808184" d="M 308.257812 260.015625 C 305.902344 254.433594 302.519531 249.417969 298.253906 245.136719 C 293.984375 240.855469 288.980469 237.464844 283.417969 235.101562 C 277.710938 232.679688 271.589844 231.417969 265.246094 231.417969 C 258.902344 231.417969 252.777344 232.679688 247.074219 235.101562 C 241.507812 237.464844 236.507812 240.855469 232.238281 245.136719 C 227.96875 249.417969 224.585938 254.433594 222.230469 260.015625 C 219.816406 265.738281 218.558594 271.878906 218.558594 278.242188 L 219.554688 278.242188 C 219.554688 252.972656 240.050781 232.414062 265.246094 232.414062 C 290.4375 232.414062 310.933594 252.972656 310.933594 278.242188 L 311.933594 278.242188 C 311.933594 271.878906 310.671875 265.738281 308.257812 260.015625 Z M 308.257812 260.015625 " fill-opacity="1" fill-rule="nonzero"/><path fill="#58595b" d="M 296.480469 265.007812 C 294.765625 260.953125 292.300781 257.304688 289.210938 254.203125 C 286.125 251.105469 282.484375 248.632812 278.441406 246.917969 C 274.324219 245.167969 269.875 244.238281 265.246094 244.238281 C 260.613281 244.238281 256.164062 245.167969 252.046875 246.917969 C 248.003906 248.632812 244.367188 251.105469 241.277344 254.203125 C 238.191406 257.300781 235.722656 260.953125 234.011719 265.007812 C 232.269531 269.136719 231.34375 273.597656 231.34375 278.242188 L 232.339844 278.242188 C 232.339844 260.042969 247.101562 245.238281 265.246094 245.238281 C 283.390625 245.238281 298.152344 260.042969 298.152344 278.242188 L 299.148438 278.242188 C 299.148438 273.597656 298.222656 269.136719 296.480469 265.007812 Z M 296.480469 265.007812 " fill-opacity="1" fill-rule="nonzero"/><path fill="#231f20" d="M 265.246094 257.0625 C 253.601562 257.0625 244.125 266.5625 244.125 278.242188 L 245.121094 278.242188 C 245.121094 267.113281 254.148438 258.058594 265.246094 258.058594 C 276.339844 258.058594 285.367188 267.113281 285.367188 278.242188 L 286.363281 278.242188 C 286.363281 266.5625 276.890625 257.0625 265.246094 257.0625 Z M 265.246094 257.0625 " fill-opacity="1" fill-rule="nonzero"/><g clip-path="url(#00275ba1a5)"><path fill="#231f20" d="M 266.507812 268.519531 C 267.125 268.519531 267.734375 268.578125 268.339844 268.699219 C 268.945312 268.820312 269.53125 269 270.101562 269.234375 C 270.667969 269.472656 271.210938 269.761719 271.722656 270.105469 C 272.234375 270.449219 272.710938 270.839844 273.144531 271.277344 C 273.582031 271.714844 273.972656 272.191406 274.3125 272.703125 C 274.65625 273.21875 274.945312 273.761719 275.179688 274.332031 C 275.417969 274.902344 275.59375 275.492188 275.714844 276.097656 C 275.835938 276.703125 275.894531 277.316406 275.894531 277.933594 C 275.894531 278.554688 275.835938 279.164062 275.714844 279.773438 C 275.59375 280.378906 275.417969 280.96875 275.179688 281.539062 C 274.945312 282.109375 274.65625 282.652344 274.3125 283.167969 C 273.972656 283.679688 273.582031 284.15625 273.144531 284.59375 C 272.710938 285.03125 272.234375 285.421875 271.722656 285.765625 C 271.210938 286.109375 270.667969 286.398438 270.101562 286.632812 C 269.53125 286.871094 268.945312 287.050781 268.339844 287.171875 C 267.734375 287.289062 267.125 287.351562 266.507812 287.351562 C 265.890625 287.351562 265.28125 287.289062 264.675781 287.171875 C 264.070312 287.050781 263.484375 286.871094 262.914062 286.632812 C 262.347656 286.398438 261.804688 286.109375 261.292969 285.765625 C 260.78125 285.421875 260.304688 285.03125 259.871094 284.59375 C 259.433594 284.15625 259.042969 283.679688 258.703125 283.167969 C 258.359375 282.652344 258.070312 282.109375 257.835938 281.539062 C 257.597656 280.96875 257.421875 280.378906 257.300781 279.773438 C 257.179688 279.164062 257.121094 278.554688 257.121094 277.933594 C 257.121094 277.316406 257.179688 276.703125 257.300781 276.097656 C 257.421875 275.492188 257.597656 274.902344 257.835938 274.332031 C 258.070312 273.761719 258.359375 273.21875 258.703125 272.703125 C 259.042969 272.191406 259.433594 271.714844 259.871094 271.277344 C 260.304688 270.839844 260.78125 270.449219 261.292969 270.105469 C 261.804688 269.761719 262.347656 269.472656 262.914062 269.234375 C 263.484375 269 264.070312 268.820312 264.675781 268.699219 C 265.28125 268.578125 265.890625 268.519531 266.507812 268.519531 Z M 266.507812 268.519531 " fill-opacity="1" fill-rule="nonzero"/></g><g clip-path="url(#5afc3fb8b5)"><g transform="matrix(1, 0, 0, 1, 0, 0.00000000000001675)"><g clip-path="url(#4a9da24924)"><g clip-path="url(#9b0f238648)"><g transform="matrix(1, 0, 0, 1, 0, 0.00000000000001675)"><g clip-path="url(#6c3f0ce1c2)"><g clip-path="url(#4ed21c9b79)"><g mask="url(#0c193bd4a1)"><g transform="matrix(1, 0, 0, 1, 0, 0.00000000000001675)"><g clip-path="url(#1dc5fe7ee9)"><g clip-path="url(#c1b5e4d718)"><path fill="url(#02c781a841)" d="M 0 0.0976562 L 0 749.902344 L 1799.867188 749.902344 L 1799.867188 0.0976562 Z M 0 0.0976562 " fill-rule="nonzero"/></g></g></g></g></g></g></g></g></g></g></g><g fill="#4d917f" fill-opacity="1"><g transform="translate(1183.128068, 478.505296)"><g><path d="M 156.265625 -39.421875 L 70.453125 -39.421875 L 54.5 0 L -4.0625 0 L 85.53125 -202.9375 L 142.0625 -202.9375 L 231.9375 0 L 172.21875 0 Z M 139.453125 -81.765625 L 113.359375 -146.703125 L 87.265625 -81.765625 Z M 139.453125 -81.765625 "/></g></g></g><g fill="#4d917f" fill-opacity="1"><g transform="translate(1439.996577, 478.505296)"><g><path d="M 109.015625 -53.921875 L 77.703125 -53.921875 L 77.703125 0 L 20.296875 0 L 20.296875 -202.9375 L 113.0625 -202.9375 C 131.425781 -202.9375 147.375 -199.894531 160.90625 -193.8125 C 174.4375 -187.726562 184.875 -179.03125 192.21875 -167.71875 C 199.5625 -156.414062 203.234375 -143.128906 203.234375 -127.859375 C 203.234375 -113.171875 199.800781 -100.363281 192.9375 -89.4375 C 186.082031 -78.519531 176.273438 -69.96875 163.515625 -63.78125 L 207.296875 0 L 145.828125 0 Z M 145.25 -127.859375 C 145.25 -137.328125 142.253906 -144.671875 136.265625 -149.890625 C 130.273438 -155.109375 121.382812 -157.71875 109.59375 -157.71875 L 77.703125 -157.71875 L 77.703125 -98.28125 L 109.59375 -98.28125 C 121.382812 -98.28125 130.273438 -100.84375 136.265625 -105.96875 C 142.253906 -111.09375 145.25 -118.390625 145.25 -127.859375 Z M 145.25 -127.859375 "/></g></g></g><g fill="#4d917f" fill-opacity="1"><g transform="translate(1683.528886, 478.505296)"><g><path d="M 121.484375 4.0625 C 100.210938 4.0625 81.117188 -0.429688 64.203125 -9.421875 C 47.296875 -18.410156 34.007812 -30.925781 24.34375 -46.96875 C 14.6875 -63.007812 9.859375 -81.175781 9.859375 -101.46875 C 9.859375 -121.769531 14.6875 -139.941406 24.34375 -155.984375 C 34.007812 -172.023438 47.296875 -184.535156 64.203125 -193.515625 C 81.117188 -202.503906 100.210938 -207 121.484375 -207 C 140.035156 -207 156.75 -203.710938 171.625 -197.140625 C 186.507812 -190.578125 198.882812 -181.109375 208.75 -168.734375 L 172.21875 -135.6875 C 159.070312 -151.53125 143.125 -159.453125 124.375 -159.453125 C 113.351562 -159.453125 103.539062 -157.035156 94.9375 -152.203125 C 86.34375 -147.367188 79.675781 -140.554688 74.9375 -131.765625 C 70.207031 -122.972656 67.84375 -112.875 67.84375 -101.46875 C 67.84375 -90.070312 70.207031 -79.972656 74.9375 -71.171875 C 79.675781 -62.378906 86.34375 -55.566406 94.9375 -50.734375 C 103.539062 -45.898438 113.351562 -43.484375 124.375 -43.484375 C 143.125 -43.484375 159.070312 -51.410156 172.21875 -67.265625 L 208.75 -34.203125 C 198.882812 -21.835938 186.507812 -12.367188 171.625 -5.796875 C 156.75 0.773438 140.035156 4.0625 121.484375 4.0625 Z M 121.484375 4.0625 "/></g></g></g></svg>